<?xml version="1.0" encoding="utf-8"?>
<svg viewBox="0 0 500 500" xmlns="http://www.w3.org/2000/svg">
  <path class="st5" d="M 675.693 314.945 C 675.993 314.745 676.193 314.445 676.593 314.445 C 676.893 314.445 677.193 314.745 677.393 315.045 C 677.593 315.445 677.593 316.045 677.393 316.445 C 677.293 316.745 677.093 317.045 676.893 317.245 C 676.493 317.845 676.093 318.345 675.693 318.945 C 675.493 319.245 675.193 319.545 674.893 319.745 C 673.693 320.345 672.693 318.745 673.193 317.745 C 673.493 316.945 674.193 316.345 674.693 315.745 C 674.993 315.445 675.293 315.245 675.593 315.045 C 675.493 315.145 675.593 315.045 675.693 314.945 Z" style="fill: rgb(8, 7, 12);"/>
  <path class="st5" d="M 670.093 314.645 C 669.893 314.445 669.593 314.345 669.393 314.145 C 668.993 313.845 668.493 313.745 668.093 313.445 C 667.593 313.045 666.993 312.745 666.393 312.545 C 665.093 311.945 663.493 311.745 662.193 312.345 C 662.093 312.345 661.993 312.445 661.893 312.545 C 661.793 312.645 661.793 312.845 661.793 312.945 C 661.693 314.345 662.493 315.645 663.693 316.445 C 664.893 317.245 666.193 317.545 667.593 317.845 C 669.593 318.245 671.793 318.445 673.893 318.345 C 673.893 318.045 673.693 317.845 673.393 317.745 C 673.193 317.545 672.893 317.445 672.693 317.345 C 672.393 317.145 672.293 316.845 672.093 316.645 C 671.393 315.745 670.793 315.145 670.093 314.645 Z" style="fill: rgb(8, 7, 12);"/>
  <path class="st5" d="M 681.693 321.145 C 681.893 321.445 682.093 321.845 682.193 322.245 C 682.893 324.045 683.093 326.045 682.793 328.045 C 681.493 327.545 680.193 327.145 679.193 326.245 C 678.493 325.545 677.893 324.745 677.493 323.845 C 677.293 323.445 677.093 323.045 676.993 322.545 C 676.893 322.045 676.893 321.545 676.793 321.045 C 676.693 320.345 676.393 319.545 675.693 319.245 C 675.393 319.145 674.993 319.045 674.993 318.745 C 674.993 318.545 675.093 318.345 675.293 318.245 C 675.493 318.145 675.693 318.145 675.893 318.145 C 676.593 318.145 677.093 318.345 677.793 318.545 C 678.293 318.745 678.793 318.745 679.293 319.045 C 680.293 319.345 681.093 320.145 681.693 321.145 Z" style="fill: rgb(8, 7, 12);"/>
  <path class="st4" d="M 658.393 339.145 C 657.693 338.845 656.893 338.445 656.193 338.345 C 655.393 338.245 654.693 338.545 653.993 338.945 C 652.093 340.145 651.093 342.445 651.493 344.645 C 651.793 346.045 652.493 347.245 653.293 348.445 C 653.693 349.045 653.993 349.645 654.393 350.145 C 654.993 351.145 655.693 352.145 656.593 352.845 C 657.393 353.445 658.293 353.745 659.193 354.045 C 660.493 354.445 661.893 354.545 663.193 354.145 C 664.593 353.745 665.693 352.745 666.693 351.545 C 667.993 349.945 668.993 348.045 669.293 345.945 C 669.593 343.945 669.193 341.745 667.893 340.045 C 667.593 339.545 667.093 339.145 666.593 338.845 C 665.193 338.145 663.993 339.045 662.593 339.345 C 661.193 339.845 659.593 339.645 658.393 339.145 Z" style="fill: rgb(255, 159, 155);"/>
  <path class="st1" d="M 662.693 343.645 C 663.193 343.445 663.493 343.045 663.893 342.645 C 664.293 342.245 664.693 341.945 665.193 341.945 C 665.293 341.945 665.293 341.945 665.393 341.945 C 665.493 342.045 665.493 342.145 665.493 342.245 C 665.593 342.945 665.293 343.645 664.793 344.145 C 664.593 344.345 664.393 344.545 664.093 344.645 C 663.793 344.845 663.593 344.945 663.293 345.145 C 662.793 345.345 662.293 345.345 661.793 345.345 C 661.193 345.345 660.693 345.145 660.093 344.945 C 659.593 344.745 657.593 343.245 658.993 343.045 C 659.493 342.945 660.193 343.545 660.593 343.745 C 661.293 343.945 662.093 343.945 662.693 343.645 Z" style="fill: rgb(255, 255, 255);"/>
  <path class="st1" d="M 654.393 346.145 C 654.593 346.245 654.793 346.345 654.993 346.245 C 655.093 346.145 655.193 345.945 655.193 345.845 C 655.293 345.245 654.893 344.745 654.693 344.145 C 654.493 343.345 655.093 342.345 654.293 341.945 C 653.693 341.645 653.093 341.945 652.793 342.445 C 652.193 343.745 653.193 345.545 654.393 346.145 Z" style="fill: rgb(255, 255, 255);"/>
  <path class="st4" d="M 676.693 342.145 C 676.193 342.545 675.993 343.245 675.793 343.845 C 675.193 345.545 674.493 347.245 674.893 349.045 C 675.093 350.145 675.693 351.045 676.393 351.845 C 677.793 353.545 679.693 354.745 681.893 355.145 C 683.993 355.545 686.393 354.945 687.893 353.445 C 688.493 352.845 688.993 352.145 689.493 351.445 C 690.093 350.545 690.793 349.645 690.993 348.545 C 691.193 347.745 691.193 346.945 691.093 346.245 C 690.993 344.745 690.693 343.145 689.993 341.745 C 689.293 340.345 688.093 339.245 686.593 338.845 C 684.793 338.345 682.293 338.945 680.693 339.945 C 679.993 340.345 679.593 340.845 678.893 341.145 C 678.093 341.345 677.293 341.545 676.693 342.145 Z" style="fill: rgb(255, 159, 155);"/>
  <path class="st1" d="M 682.193 344.845 C 682.793 344.445 683.193 343.945 683.593 343.345 C 683.893 342.945 684.093 342.445 684.593 342.145 C 684.693 342.045 684.793 342.245 684.793 342.345 C 684.993 343.145 684.593 344.045 683.993 344.645 C 683.093 345.645 680.193 347.545 678.893 346.045 C 678.293 345.345 678.993 345.445 679.593 345.445 C 680.593 345.445 681.393 345.445 682.193 344.845 Z" style="fill: rgb(255, 255, 255);"/>
  <path class="st1" d="M 675.993 348.845 C 676.193 349.645 676.693 350.245 677.393 350.645 C 677.693 350.745 677.993 350.845 678.193 350.645 C 678.393 350.445 678.393 350.245 678.293 350.045 C 678.193 349.845 678.093 349.645 677.893 349.445 C 677.393 348.745 677.493 347.145 676.793 346.945 C 675.693 346.645 675.793 348.245 675.993 348.845 Z" style="fill: rgb(255, 255, 255);"/>
  <path class="st5" d="M 665.893 324.245 C 663.793 326.645 662.193 329.445 661.393 332.545 C 660.993 334.045 660.793 335.545 660.793 337.045 C 660.793 337.745 660.893 338.445 660.993 339.245 C 661.093 339.945 660.993 340.545 661.393 341.245 C 661.493 341.345 661.493 341.545 661.693 341.545 C 662.193 341.845 662.293 341.245 662.293 340.845 C 662.293 340.345 662.093 339.945 661.993 339.445 C 661.893 338.945 661.793 338.545 661.793 338.045 C 661.793 337.545 661.793 337.145 661.893 336.645 C 662.093 334.845 662.293 333.145 662.793 331.345 C 663.193 330.145 663.893 329.045 664.393 327.845 C 665.093 326.345 666.093 325.245 667.193 324.145 C 668.293 322.945 669.593 321.745 670.993 320.945 C 672.293 320.145 674.293 319.345 674.893 317.845 C 673.693 316.845 671.493 319.245 670.593 319.845 C 668.893 321.245 667.293 322.645 665.893 324.245 Z" style="fill: rgb(8, 7, 12);"/>
  <path class="st5" d="M 673.693 319.645 C 672.993 323.145 672.293 326.645 672.993 330.145 C 673.293 331.645 673.893 333.045 674.493 334.445 C 675.793 337.545 677.093 340.745 679.293 343.245 C 679.593 343.545 679.993 344.145 680.493 343.945 C 681.193 343.745 680.693 342.945 680.393 342.645 C 679.993 342.245 679.493 342.045 679.093 341.645 C 678.793 341.345 678.593 340.945 678.393 340.545 C 677.493 338.945 676.693 337.245 675.993 335.545 C 675.393 334.245 674.793 332.945 674.393 331.545 C 673.493 328.545 673.293 325.245 673.993 322.145 C 674.293 320.945 674.993 319.345 674.693 318.145 C 674.393 316.445 673.793 319.245 673.693 319.645 Z" style="fill: rgb(8, 7, 12);"/>
  <path class="st4" d="M 182.74 134.079 C 169.488 132.753 156.236 132.753 142.986 131.428 C 115.157 130.103 84.679 128.779 64.802 147.329 C 47.576 161.906 42.276 187.084 44.925 209.612 C 47.576 232.138 56.852 253.34 66.129 273.217 C 91.306 328.873 117.808 385.855 162.863 428.259 C 189.365 453.436 225.144 471.989 260.922 464.037 C 295.376 454.763 317.904 422.958 336.455 392.48 C 352.358 368.627 366.933 344.776 382.836 319.598 C 402.713 287.794 422.591 257.316 435.841 221.537 C 447.768 187.084 453.069 147.329 441.141 112.875 C 437.165 102.275 433.191 91.674 425.24 83.724 C 404.038 59.871 365.609 54.571 335.13 65.171 C 305.977 74.448 282.126 95.649 262.249 118.176 C 242.372 139.38 209.243 135.404 182.74 134.079 Z" style="fill: rgb(255, 159, 155);"/>
  <path class="st5" d="M 166.839 114.202 C 154.912 106.25 137.686 94.325 137.686 78.423 C 140.335 78.423 141.661 79.748 142.986 82.397 C 148.286 90.349 156.236 95.649 165.512 99.625 C 176.113 103.601 185.39 107.575 195.991 108.901 C 199.966 110.226 203.942 110.226 206.593 107.575 C 209.243 104.926 209.243 99.625 209.243 95.649 C 206.593 79.748 203.942 62.52 201.291 46.619 C 201.291 45.294 201.291 43.97 201.291 42.643 C 202.617 38.669 207.918 38.669 210.567 42.643 C 213.218 45.294 213.218 49.27 213.218 53.246 C 214.543 67.821 217.194 81.073 221.168 94.325 C 222.495 98.299 223.819 102.275 227.795 102.275 C 231.771 103.601 235.745 99.625 238.396 96.974 C 246.346 85.049 250.321 71.797 254.297 58.546 C 255.622 54.571 266.223 21.441 272.85 26.742 C 274.174 28.066 274.174 29.393 274.174 32.042 C 275.499 49.27 274.174 66.496 268.874 83.724 C 264.898 99.625 259.598 116.851 251.646 130.103 C 237.071 160.581 188.041 128.779 166.839 114.202 Z" style="fill: rgb(8, 7, 12);"/>
  <path class="st1" d="M 154.912 220.213 C 156.236 217.562 154.912 214.912 154.912 212.261 C 154.912 209.612 153.587 208.285 150.936 206.961 C 149.611 206.961 148.286 206.961 146.962 208.285 C 145.635 209.612 145.635 210.936 144.311 212.261 C 142.986 214.912 141.661 220.213 142.986 222.862 C 144.311 225.513 148.286 225.513 150.936 224.189 C 153.587 222.862 154.912 221.537 154.912 220.213 Z" style="fill: rgb(255, 255, 255);"/>
  <path class="st1" d="M 266.223 179.134 C 266.223 177.807 267.549 177.807 267.549 176.483 C 267.549 175.158 267.549 173.833 267.549 173.833 C 267.549 172.507 267.549 169.858 267.549 168.531 C 267.549 165.882 263.574 161.906 260.922 163.231 C 259.598 163.231 258.273 165.882 258.273 167.206 C 256.948 169.858 256.948 172.507 256.948 176.483 C 256.948 179.134 256.948 181.783 258.273 183.108 C 259.598 184.434 262.249 185.759 264.898 184.434 C 263.574 181.783 264.898 180.458 266.223 179.134 Z" style="fill: rgb(255, 255, 255);"/>
  <path class="st1" d="M 336.455 167.206 C 336.455 167.206 337.782 167.206 337.782 168.531 C 340.431 169.858 344.407 165.882 344.407 161.906 C 344.407 159.257 341.756 153.956 340.431 152.63 C 340.431 152.63 340.431 152.63 339.106 151.305 C 337.782 151.305 337.782 151.305 336.455 151.305 C 331.155 153.956 329.83 160.581 333.806 164.557 C 335.13 165.882 336.455 167.206 336.455 167.206 Z" style="fill: rgb(255, 255, 255);"/>
  <path class="st1" d="M 264.898 255.991 C 263.574 253.34 262.249 249.366 260.922 248.04 C 260.922 248.04 259.598 246.715 259.598 246.715 C 259.598 246.715 258.273 246.715 258.273 246.715 C 255.622 248.04 255.622 250.691 254.297 253.34 C 254.297 257.316 252.973 266.592 259.598 266.592 C 266.223 265.267 266.223 259.967 264.898 255.991 Z" style="fill: rgb(255, 255, 255);"/>
  <path class="st1" d="M 178.765 392.48 C 181.414 392.48 185.39 391.155 186.716 389.831 C 186.716 389.831 188.041 389.831 188.041 388.504 C 188.041 388.504 188.041 387.18 188.041 387.18 C 188.041 384.53 185.39 383.204 182.74 383.204 C 178.765 381.879 169.488 380.554 169.488 387.18 C 169.488 392.48 174.789 393.805 178.765 392.48 Z" style="fill: rgb(255, 255, 255);"/>
  <path class="st1" d="M 203.942 326.224 C 205.267 327.548 206.593 327.548 207.918 326.224 C 211.894 324.899 210.567 316.947 207.918 315.623 C 206.593 314.298 205.267 314.298 203.942 314.298 C 202.617 314.298 199.966 312.971 198.642 312.971 C 197.317 312.971 195.991 312.971 194.666 314.298 C 194.666 314.298 194.666 315.623 194.666 315.623 C 195.991 316.947 199.966 324.899 203.942 326.224 Z" style="fill: rgb(255, 255, 255);"/>
  <path class="st1" d="M 356.332 244.066 C 356.332 244.066 357.659 244.066 357.659 242.739 C 360.308 241.415 364.284 238.763 362.959 236.114 C 362.959 236.114 362.959 236.114 362.959 234.789 C 362.959 234.789 362.959 234.789 361.633 234.789 C 356.332 233.463 351.032 234.789 347.056 238.763 C 347.056 238.763 345.731 240.09 345.731 240.09 C 345.731 241.415 345.731 241.415 345.731 242.739 C 345.731 242.739 345.731 244.066 345.731 244.066 C 345.731 244.066 347.056 245.39 347.056 245.39 C 351.032 245.39 353.683 245.39 356.332 244.066 Z" style="fill: rgb(255, 255, 255);"/>
  <path class="st1" d="M 100.581 201.66 C 100.581 201.66 101.907 202.985 101.907 202.985 C 104.556 204.311 108.532 205.636 111.182 204.311 C 111.182 204.311 111.182 204.311 111.182 202.985 C 111.182 202.985 111.182 202.985 111.182 201.66 C 108.532 196.36 105.881 192.384 99.256 191.059 C 99.256 191.059 97.931 191.059 97.931 191.059 C 96.607 191.059 96.607 192.384 95.28 192.384 C 95.28 192.384 93.956 192.384 93.956 193.709 C 93.956 193.709 93.956 195.035 93.956 195.035 C 96.607 197.684 99.256 200.336 100.581 201.66 Z" style="fill: rgb(255, 255, 255);"/>
  <path class="st1" d="M 402.713 135.404 C 402.713 134.079 404.038 132.753 404.038 131.428 C 404.038 128.779 404.038 127.452 404.038 126.128 C 404.038 126.128 404.038 124.803 402.713 124.803 C 402.713 124.803 401.387 124.803 401.387 124.803 C 398.738 126.128 396.087 127.452 394.762 130.103 C 393.437 131.428 394.762 135.404 394.762 136.728 C 396.087 142.029 400.062 143.354 402.713 138.053 C 402.713 136.728 402.713 136.728 402.713 135.404 Z" style="fill: rgb(255, 255, 255);"/>
  <path class="st1" d="M 299.352 355.377 C 299.352 355.377 300.677 354.05 300.677 354.05 C 303.328 348.75 304.652 343.45 302.003 336.824 C 299.352 336.824 298.027 338.149 296.701 339.476 C 294.052 342.125 292.727 346.101 294.052 350.076 C 292.727 352.726 295.376 358.026 299.352 355.377 Z" style="fill: rgb(255, 255, 255);"/>
  <path class="st1" d="M 136.361 298.395 C 136.361 298.395 137.686 297.07 137.686 297.07 C 140.335 291.77 141.661 286.469 139.01 279.844 C 136.361 279.844 135.034 281.169 133.71 282.493 C 131.059 285.145 129.734 289.12 131.059 293.094 C 131.059 294.421 133.71 299.721 136.361 298.395 Z" style="fill: rgb(255, 255, 255);"/>
  <path class="st1" d="M 247.672 415.008 C 250.321 415.008 251.646 411.033 250.321 408.381 C 248.997 405.732 246.346 403.081 243.696 403.081 C 242.372 403.081 241.045 403.081 241.045 403.081 C 241.045 403.081 239.721 403.081 239.721 404.406 C 239.721 404.406 239.721 404.406 239.721 405.732 C 239.721 409.708 242.372 415.008 247.672 415.008 Z" style="fill: rgb(255, 255, 255);"/>
</svg>