<?xml version="1.0" encoding="utf-8"?>
<!-- Generator: Adobe Illustrator 24.1.3, SVG Export Plug-In . SVG Version: 6.00 Build 0)  -->
<svg version="1.1" id="Calque_1" xmlns="http://www.w3.org/2000/svg" xmlns:xlink="http://www.w3.org/1999/xlink" x="0px" y="0px"
	 viewBox="0 0 1920 800" style="enable-background:new 0 0 1920 800;" xml:space="preserve">
<style type="text/css">
	.st0{fill:#FFF7EE;}
	.st1{fill:#FFFFFF;}
	.st2{fill:#EFCC95;}
	.st3{fill:#F4E4C6;}
	.st4{fill:#08070C;}
	.st5{fill:#F9E9C8;}
</style>
<g>
	<rect x="0" y="0" class="st0" width="1920.7" height="800"/>
	<polygon class="st1" points="1740.1,503.2 1640.2,593.2 1477.1,514 1527.3,429 1645.2,433.2 	"/>
	<g>
		<path class="st2" d="M1659.3,394.2c9.6-2.3,16.5-5,23.7-9.2c0-1.1,0-2.3,0-3.4c-11.1,2.3-22.6,5-33.7,3.1
			c-18.8-3.4-16.5-12.2-23.7-26.4c-8.8-17.2-2.7-24.9,10.7-38.3c5.4-5.4,9.6-11.9,14.9-17.6c1.5-1.5,2.7-3.1,4.2-4.6
			c0.4-0.4,0.8-0.8,1.5-1.1c-2.3-1.5-3.8-3.4-5.4-5.7c-0.8-1.1-1.1-2.3-1.9-3.4c-1.5,1.5-3.4,3.1-5,4.2c-2.3,1.9-4.6,3.8-6.9,5.7
			c-2.7,2.7-4.6,5.7-7.3,8c-3.8,3.4-8.4,6.9-13.4,8.4c-5.4,1.1-11.1,0.8-16.5-0.8c-9.2-2.7-17.6-7.7-26.4-11.9
			c-10.7-4.6-36-5.4-38.3-18.4c-0.8-4.2,1.9-11.5,5-18c-0.4-0.8-0.8-1.1-1.1-1.9c-6.5,6.9-13.8,11.9-24.1,14.5
			c-2.3,0.8-4.6,1.1-6.9,1.1c-14.2,1.1-24.9-6.5-38.7-12.2c0.8,0.4,0.8,0.8,0.4,0.8c-6.5-8.8-10.3-20.7-13.8-33.3
			c-3.1,1.5-6.5,2.7-10.7,2.7c-1.1,0-1.9,0-3.1-0.4c0.8,5,1.1,10.3,0.4,15.3c-3.8,21.8-25.6,13-41,14.2c-16.1,1.5-32.5,13-33.7-11.1
			c-0.4-3.8-0.4-8.4-0.8-13c-0.8-0.4-1.5-0.4-1.9-0.8c-0.8,5-2.3,10.3-2.7,11.9c-1.5,5-6.1,10.3-10.3,13.4
			c-5.4,3.8-9.6,8.4-15.7,11.1c-3.1,1.5-6.9,3.1-10,3.1c-2.7,0-6.1-0.8-8.8-1.5c-6.5-1.9-12.2-5-17.2-9.6c-2.3-1.9-5-4.6-7.3-6.5
			c-3.4-3.1-6.1-6.5-8.4-10.3c-2.3-3.8-5-7.7-7.3-11.5c-1.1-1.9-1.9-4.2-3.1-6.1c-1.1,1.5-2.7,2.7-4.2,3.4c-1.1,0.8-6.5,1.1-7.3,2.3
			c0,0,3.8,6.5,4.6,8c6.5,13.8,20.3,26,17.6,42.9c-4.2,27.2-48.6,45.2-77.3,40.2c-0.4,1.1-0.4,2.3-0.8,3.4
			c7.7,5,17.6,11.5,19.9,13.8c11.9,13-0.8,29.9-0.4,45.5c0.4,23.3,9.2,39.4-8,59.3c-6.1,7.3-13.4,13-21.8,17.6
			c2.7,2.7,6.9,11.1,6.9,11.1c9.2-6.5,14.2-17.2,24.1-23.7c16.5-11.1,36-4.2,50.1,5.4c13.4,9.2,29.5,10.7,31.4,29.5
			c1.1,11.9,0.8,21.8-3.1,30.6c0.8,0.4,1.1,0.8,1.9,1.1c0.4,0,0.4,0.4,0.8,0.4c3.8-3.4,6.5-6.5,12.6-12.2
			c19.5-18.8,37.1-13,60.9-5.7c14.2,4.2,28.3,3.8,36.7,18.4c8,13.4,2.7,28.7-3.8,41.7c5.4,1.5,9.2,1.5,14.2,1.9
			c1.9-23.3,7.3-34.4,9.6-37.5c7.7-10.7,19.5-11.5,31.8-12.6c27.9-2.7,31.8,13.8,37.9,34.8c0.8,0,1.5,0,2.3,0
			c0-6.1,0.4-13.4,1.1-16.5c1.5-8.4,7.3-14.9,13.8-21c24.9-23,59.7,5,60.5,34.8c5.4-4.2,10-6.9,15.3-11.9c-11.5-8-16.5-14.9-18-18
			c-3.8-8-3.4-18.4,0.4-26.4c7.7-15.7,30.6-29.1,47.1-18.8c6.9,4.6,16.5,10.7,19.5,18c1.9-4.6,5-8.8,8.4-12.2
			C1619.5,468.4,1614.5,405.3,1659.3,394.2z"/>
		<path class="st3" d="M1634.8,389.6c-13.8-0.8-18-10.7-20.7-22.6c-3.1-13.4-8.4-26,1.1-38.3c2.3-2.7,5.4-5,3.4-8.8
			c-13.4,1.1-29.1,3.8-42.1-1.1c-11.9-4.6-22.6-11.1-34.4-15.3c-10.3-3.8-18.8-10.7-18.4-22.6c-9.2,8.8-29.9,10.7-41.7,8
			c-18-4.2-23.3-17.2-31-31.8c-6.9,5.4-9.2,12.2-18.4,16.1c-8.4,3.4-17.2,3.8-26,4.6c-11.1,0.8-41,5-45.9-8.4
			c-6.9,12.2-21.8,17.6-34.8,18.8c-7.7,0.8-13.4,0-19.9-3.8c-6.1-3.4-11.1-9.2-16.5-12.6c-0.8,8.8,4.6,16.8,3.4,25.6
			c-1.9,13.4-15.7,21.1-26,27.9c-10.7,7.3-24.9,15.3-38.7,12.6c4.2,6.5,13.4,6.1,14.9,15.3c1.5,8-4.2,16.1-7.7,23
			c-5.7,11.9-2.7,21.8,1.5,33.3c3.4,10,5.4,23.3-1.5,32.1c5.7-1.5,13-1.9,18.8,0c10,3.4,18.8,8.8,27.9,12.6
			c7.7,3.1,15.3,7.7,21.1,13.4c3.4,3.8,6.1,8,9.2,13c2.3,4.2,2.7,10.7,5.4,13.8c-0.8-0.8,29.5-6.5,31.8-6.5
			c14.5-0.4,28.3,4.6,42.1,8.4c18.4,5.4,29.9,16.1,37.5,33.7c3.4-3.4,4.6-9.2,8.8-12.6c11.1-10,27.6-6.9,41-5.7
			c8.4,0.8,28.7,1.5,28.7,13.8c7.7-18,27.2-28.3,46.7-27.2c5.4,0.4,16.1,3.8,19.1,7.7c-6.5-16.1,11.5-33.3,23.3-41.3
			c4.2-2.7,24.9-11.5,28.7-7.3c-12.6-12.2-14.9-35.6-8.8-50.5C1621,396.5,1627.5,395.3,1634.8,389.6z"/>
		<path class="st4" d="M1497.8,296.6c-68.5-17.6-142.4-23.3-202.1,19.5c-36.4,26-73.5,71.6-33.3,111.4
			c24.5,24.1,55.5,39.4,88.4,49.8c38.3,12.2,73.1,24.5,113.7,20.7c30.6-2.7,65.1-1.9,92.6-16.8c26.8-14.5,45.2-39.4,49.8-68.5
			c5-30.2,1.1-63.9-25.3-84.6C1557.9,309.2,1526.1,303.8,1497.8,296.6z"/>
		<path class="st2" d="M1495.1,303.8c-65.8-16.5-136.6-21.4-194,18.4c-34.8,24.5-70.8,66.6-32.1,103.7c23.3,22.2,53.2,36.7,85,46.3
			c36.7,11.1,70,22.6,109.1,19.1c29.5-2.7,62.4-1.5,88.8-15.7c25.6-13.8,43.2-36.7,47.8-63.9c4.6-28.3,1.1-59.7-24.1-78.8
			C1552.9,316.1,1522.7,310.7,1495.1,303.8z"/>
		<path class="st3" d="M1485.9,328.3c-0.8,1.9-1.1,4.2-2.3,6.9c-6.1,11.9-27.9,10.7-39.4,8.8c-7.3-1.1-15.7-4.6-21-9.6
			c-6.5-5.4-5.4-10.3-8.4-17.2c-4.2-9.6-26-14.5-34.8-7.7c-9.2,7.3,0,20.3-10.3,28.3c-9.2,7.3-22.6,8.4-33.3,11.9
			c-13,4.2-11.5-0.8-20.3-8c-14.9-12.6-34.4,18.8-40.6,29.5c-5.4,9.6-8.4,22.2-4.2,32.9c4.6,11.1,19.1,2.7,27.6,2.7s16.1,2.3,24.1,5
			c6.5,1.9,14.5,3.4,19.5,8.4c8.8,8.4-5.7,18-2.7,27.6c1.1,3.4,5,9.6,9.2,10c1.9,0,4.2-0.8,5.7-1.1c2.7-1.1,5.7-4.2,6.9-7.3
			c1.5-3.1,0.8-6.1,1.1-9.6c0.4-3.1,2.3-7.7,3.8-10.3c12.6-20.7,38.3-19.5,59.3-14.9c9.2,1.9,18,5.4,26,11.1
			c7.3,5.7,11.5,14.2,9.2,23.3c-1.9,7.7-6.5,16.8,0.8,23c6.9,5.4,19.9,1.9,26.8-1.1c11.9-5.4,7.7-20.7,15.7-30.2
			c11.1-13.4,28.3-11.1,42.5-6.9c16.8,5,25.6-1.1,29.1-18c2.3-11.9,0.4-14.5-10-18.8c-7.7-3.1-18.8-10-23.3-17.2
			c-5.7-10-1.5-24.5-1.9-35.6c-0.8-18.4-32.5-23.3-46.3-21C1488.6,322.6,1487.1,324.9,1485.9,328.3z"/>
		<path class="st0" d="M1491.3,341c0,0.4-0.4,0.4-0.4,0.8c-4.2,8.4-11.1,13.8-20.7,14.5c-5,0.4-9.6-1.9-14.5-2.7
			c-7.3-1.1-14.2-2.7-21.1-5c-5-1.5-10.7-3.4-14.9-6.5c-8.4-6.1-7.3-19.5-16.8-24.1c-6.5-3.1-14.5-1.1-19.1,3.8c-5,5-5,12.6-8,18.8
			c-3.8,7.3-9.6,10-17.2,12.6c-10,3.4-19.1,2.7-29.5,3.4c-8,0.4-14.9-5-23-4.6c-7.7,0.4-14.5,5.7-18.8,12.2
			c-4.2,6.1-7.3,16.5-6.1,23.7c1.5,10.7,13.8,11.1,22.6,10.7c6.1-0.4,11.5-0.8,17.2,1.1c9.6,3.1,19.5,6.9,27.6,12.6
			c5.4,3.8,3.4,10.3,1.9,15.3c-1.5,4.6-6.9,8.8-7.3,13.4c-0.8,5.4,5.4,8,9.6,5.7c4.2-1.9,2.7-5.7,3.1-9.2
			c1.9-19.9,16.8-35.6,37.5-34.8c13,0.4,26,1.9,38.7,4.6c14.5,3.4,29.5,6.9,37.9,20.3c5.7,9.2-0.4,17.6-1.5,27.2
			c-0.4,3.4,0.4,6.9,3.8,8c6.5,1.9,11.5-5.4,14.2-10c3.8-6.5,4.6-14.9,10-21c11.5-13,25.3-10.3,40.2-8.4c9.6,1.1,27.9,4.2,31.4-8.4
			c3.1-11.5-8.8-17.6-17.6-21.8c-4.6-2.3-9.2-3.4-12.2-8c-3.8-5.4-6.1-11.1-5.4-18c0.4-3.4,1.1-6.5,1.1-10c0-9.6-6.5-22.2-16.1-25.3
			C1508.9,329.9,1496.3,332.2,1491.3,341z"/>
		<ellipse class="st5" cx="1410.2" cy="447" rx="42.1" ry="25.3"/>
		<path class="st5" d="M1324.8,419c-7.7-5-24.5-12.2-32.1-3.4c-8.4,10,5,19.5,13,23.3c6.9,3.1,24.1,8,29.9,0.4
			C1343.6,429.4,1332.8,424,1324.8,419z"/>
		<path class="st5" d="M1348.9,313.8c-6.1,1.1-20.7,5.7-23.3,13.4c-5.4,13.8,12.6,13.8,22.2,12.6c10.3-1.1,23.3-4.2,22.6-16.5
			C1369.2,307.7,1359.3,311.9,1348.9,313.8z"/>
		<path class="st5" d="M1457.6,312.6c-8.4-1.5-23.7-6.1-30.6,1.1c-9.2,10.3,3.1,17.2,11.5,19.9c6.5,1.9,25.6,6.5,31,0.4
			C1477.5,325.3,1464.1,313.8,1457.6,312.6z"/>
		<path class="st5" d="M1548.7,349c-14.5,9.2,8.4,43.2,21.4,33.3C1582.4,373.9,1562.1,341,1548.7,349z"/>
		<path class="st5" d="M1539.1,434.4c-18.8-2.3-50.1,23.7-19.9,27.2C1538.8,463.4,1569,437.8,1539.1,434.4z"/>
		<path class="st3" d="M1446.1,447.7c0,7.7-8,13.8-18,13.8c-10,0-18-6.1-18-13.8s8-13.8,18-13.8
			C1438.1,434,1446.1,440.5,1446.1,447.7z"/>
		<g>
			<path class="st1" d="M1456.1,315.3c-1.5-0.4-6.1-1.9-7.7-0.4c-3.4,3.4,2.7,3.4,4.2,4.2c1.9,0.8,6.1,4.6,7.7,1.9
				C1462.2,318.8,1458,315.7,1456.1,315.3z"/>
			<path class="st1" d="M1436.2,314.6c-3.8,0-7.3,4.2-5,7.7c0.8,1.1,3.4,2.7,5,1.5c0.4-0.4,0.8-1.1,0.8-1.9c0-1.5,0.8-3.1,1.5-4.6
				C1439.2,316.5,1438.1,314.6,1436.2,314.6z"/>
			<path class="st1" d="M1447.3,324.5c-6.5-1.5-2.3,5.4,1.9,5.7C1455.3,331,1451.5,321.8,1447.3,324.5z"/>
			<path class="st1" d="M1462.2,324.5c-6.1,0-7.7,8-0.4,7.3C1467.2,331,1467.6,324.5,1462.2,324.5z"/>
			<path class="st1" d="M1556.7,354.4c-5.4-2.3-4.6,8,1.1,7.7C1562.5,361.6,1561.3,353.6,1556.7,354.4z"/>
			<path class="st1" d="M1563.6,364.7c-1.1,2.7,0.8,14.2,4.6,8.4C1570.9,368.9,1567.8,363.9,1563.6,364.7z"/>
			<path class="st1" d="M1557.5,366.6c-0.8-1.9-4.6-3.8-6.1-1.9c-1.9,1.9,0.4,5.7,1.5,6.9C1557.9,378.1,1559.8,371.2,1557.5,366.6z"
				/>
			<path class="st1" d="M1569,377.3c-3.1,1.1-4.6-1.1-7.3-1.1c-3.8,0-3.1,3.1-0.4,4.6c1.9,1.1,5.4,2.3,7.3,1.1
				C1571.3,380.4,1572.4,375.8,1569,377.3z"/>
			<path class="st1" d="M1536.8,436.6c-3.8-0.4-13.4,5-6.9,7.7C1534.9,446.2,1544.5,437.4,1536.8,436.6z"/>
			<path class="st1" d="M1543.3,442.4c-4.2,2.3-1.9,7.7,2.3,5c4.2-2.7,0.4-8.8-1.9-4.6L1543.3,442.4z"/>
			<path class="st1" d="M1522.3,443.2c-3.8-0.4-10.3,4.2-4.2,5.7C1521.9,450.4,1528.4,444.3,1522.3,443.2z"/>
			<path class="st1" d="M1533.8,449.3c-3.4,0.8-11.5,5.7-3.4,6.1c1.5,0,5.4-0.8,6.1-2.3C1538,450,1536.1,448.9,1533.8,449.3z"/>
			<path class="st1" d="M1518.9,451.6c-1.5,0-5.4-1.9-6.5,0c-1.5,2.3,1.9,4.2,3.4,5c2.3,0.8,6.1,1.9,6.5-1.1
				C1522.3,453.1,1520.4,451.6,1518.9,451.6z"/>
			<path class="st1" d="M1306.4,413.3c-2.3-0.4-6.9-1.1-6.1,2.7c2.7,1.5,5.7,2.3,8.8,1.9C1309.9,416,1308.4,413.7,1306.4,413.3z"/>
			<path class="st1" d="M1297.3,421.3c-4.2,2.3,1.1,11.5,4.6,9.2c1.5-0.8,0.4-5.4-0.4-6.5C1299.9,421.7,1299.9,419.8,1297.3,421.3z"
				/>
			<path class="st1" d="M1314.1,418.3c-3.8,1.1,2.3,7.3,4.2,6.9C1323.3,423.6,1317.2,417.1,1314.1,418.3z"/>
			<path class="st1" d="M1323.7,424.4c-1.1,2.7,5,8.4,6.9,5.4C1333.6,425.9,1326.7,423.3,1323.7,424.4z"/>
			<path class="st1" d="M1313.3,433.2c-3.4-1.1-12.6-0.4-5.7,3.4c0.8,0.4,5.4,1.9,6.5,1.1C1315.6,436.3,1315.2,433.6,1313.3,433.2z"
				/>
			<path class="st1" d="M1329,434c-3.4,0.4-14.9,2.3-7.7,5c1.9,0.8,5.7,1.1,7.3-0.8C1330.6,435.9,1331.7,433.6,1329,434z"/>
			<path class="st1" d="M1360.4,315.3c-3.4,0.4-12.2,3.1-5.4,5.4C1360,322.2,1366.1,314.9,1360.4,315.3z"/>
			<path class="st1" d="M1341.3,319.5c-4.6,0.8-10,4.6-2.3,5.4C1344.3,326,1345.5,318.8,1341.3,319.5z"/>
			<path class="st1" d="M1337.8,330.6c-3.4,1.9-3.4-3.8-7.3-2.7c-3.4,1.1-2.7,4.2-0.8,6.1c1.5,1.5,5.4,3.8,7.7,3.1
				C1340.5,336,1340.5,332.2,1337.8,330.6z"/>
			<path class="st1" d="M1353.9,327.6c-2.3,2.3-5.4,1.9-7.7,3.4c-3.1,2.7-0.8,5.4,2.7,5c1.1,0,7.7-1.9,8-2.7
				C1359.3,331,1356.2,324.9,1353.9,327.6z"/>
			<path class="st1" d="M1365,319.1c-3.8,0.8-8.4,8.8-2.3,9.2C1368.8,328.3,1371.5,317.6,1365,319.1z"/>
		</g>
		<g>
			<path class="st3" d="M1433.1,363.2c0,10-15.7,18-35.2,18c-19.5,0-35.2-8-35.2-18c0-10,15.7-18,35.2-18
				C1417,345.2,1433.1,353.2,1433.1,363.2z"/>
		</g>
		<path class="st4" d="M1518.1,341c-2.3,0-6.1-0.8-6.9,1.9c-0.8,3.1,2.3,4.2,4.6,4.6C1523.1,349.4,1525,341,1518.1,341z"/>
		<path class="st4" d="M1523.4,383.1c-6.1-1.1-2.7,9.2,2.3,8C1532.6,389.2,1526.5,383.4,1523.4,383.1z"/>
		<path class="st4" d="M1489,356.7c-5.4,0-7.7,7.3-0.4,7.7c6.1,0,6.9-8,3.1-7.3c0,0,0.4-0.4,0.4-0.8
			C1490.9,356.3,1490.1,356.7,1489,356.7z"/>
		<path class="st4" d="M1399.8,327.6c-8-1.1-4.2,8,2.3,6.1c2.7-0.8,3.8-3.4,1.5-5.7C1402.1,326.4,1402.1,328,1399.8,327.6z"/>
		<path class="st4" d="M1342.4,361.2c-6.9,1.9-0.4,7.7,4.2,6.1C1353.9,365.8,1348.2,360.1,1342.4,361.2z"/>
		<path class="st4" d="M1301.1,365.5c-7.3,3.4-4.6,9.6,2.7,7.3C1311.4,369.7,1308,362,1301.1,365.5z"/>
		<path class="st4" d="M1327.1,384.6c-7.3-0.8-5.7,7.3,0.8,7.7C1334.8,392.3,1332.8,385.4,1327.1,384.6z"/>
		<path class="st4" d="M1372.3,394.2c-5,0-10,6.9-2.3,7.3C1374.9,401.4,1379.2,394.2,1372.3,394.2z"/>
		<path class="st4" d="M1421.3,393c-6.9,0.4-1.1,7.7,3.4,6.5C1430.8,398.4,1425.5,392.6,1421.3,393z"/>
		<path class="st4" d="M1461.4,375.8c-4.6-1.1-10.3,3.8-4.6,6.1C1461.4,384.6,1465.7,377.3,1461.4,375.8z"/>
		<path class="st4" d="M1484.8,406.8c-5,1.5-5,8.4,0.8,7.7C1490.9,413.3,1490.5,404.9,1484.8,406.8z"/>
		<path class="st4" d="M1520,403c-6.5,2.3-1.1,10,3.8,6.9C1529.2,407.2,1523.8,401.8,1520,403z"/>
		<path class="st4" d="M1549.5,406c-5.4-0.8-6.9,6.5-1.1,7.3C1555.2,413.7,1554.1,403.7,1549.5,406z"/>
		<path class="st4" d="M1482.5,431.3c-5.4,1.5-4.2,9.6,1.5,6.5C1487.9,435.9,1487.9,429.4,1482.5,431.3z"/>
		<path class="st4" d="M1492.1,377.3c-6.9,0.4-3.1,10,2.3,6.5C1499,381.2,1496.7,376.9,1492.1,377.3z"/>
		<path class="st4" d="M1454.9,397.2c-5.7,0-6.5,6.1-0.4,6.1C1460.3,403.7,1460.7,397.2,1454.9,397.2z"/>
		<path class="st4" d="M1445.8,358.6c-5.7,1.5-5,9.2,1.1,7.3C1451.5,364.3,1451.1,357.4,1445.8,358.6z"/>
		<path class="st4" d="M1297.3,385c-6.9,1.1-2.3,8,3.1,6.9C1306.8,390.7,1302.6,384.2,1297.3,385z"/>
		<path class="st4" d="M1348.9,399.9c-6.1,0.8-3.1,8,1.9,8C1356.6,407.6,1353.5,399.5,1348.9,399.9z"/>
		<path class="st4" d="M1510.4,367c-3.8,1.1-5.4,6.9,0.4,6.5C1516.2,373.5,1515.8,365.1,1510.4,367z"/>
		<path class="st4" d="M1394.1,387.3c-2.3,3.4,3.8,6.1,6.1,3.4C1402.5,387.3,1396,384.2,1394.1,387.3z"/>
	</g>
	<g>
		<g>
			<path class="st1" d="M1185.1,251.8c-5-6.5-15.3-8.4-21.8-3.1c-6.5,5.4-8.4,14.9-3.1,21.8c5,6.5,15.3,8.4,21.8,3.1
				S1190.5,258.7,1185.1,251.8L1185.1,251.8z"/>
		</g>
	</g>
	<g>
		<g>
			<path class="st2" d="M1241.8,215c-8.4-13.8-20.3-29.1-36.4-34.4c-8-2.7-16.8-2.3-24.9,0.8c-10.3,3.8-19.9,11.9-26,20.7
				c-5.4,7.7-8.4,16.8-7.7,26.4c0.8,10,5.4,20.3,12.6,27.2c3.4,3.4,8,6.1,13,7.3s10,0.8,14.5,0c10.3-2.3,19.9-6.5,30.6-4.6
				c5,0.8,10.3,2.7,15.7,1.5c5-1.1,8.8-4.2,11.9-8c6.5-9.2,5-20.3,0.8-29.9C1244.4,220,1243.3,217.3,1241.8,215
				c-0.8-1.5-2.7,0-1.9,1.5c5.4,8.8,10,20.3,5.4,30.2c-1.9,4.6-5.4,8.4-9.6,10.3c-5,2.3-10.3,0.8-15.3-0.4
				c-4.6-1.1-9.2-1.5-13.8-0.8c-4.6,0.8-8.8,1.9-13.4,3.1c-9.6,2.7-19.5,4.2-28.3-1.5c-8.4-5.4-13.8-14.9-15.7-24.5
				c-1.9-8.8,0-18,4.6-25.6c5-8.8,13.4-16.1,22.2-21.1c7.7-4.2,16.8-6.1,25.6-4.2c17.2,3.8,29.5,19.9,38.3,34.4
				C1240.6,217.7,1242.5,216.6,1241.8,215z"/>
		</g>
	</g>
</g>
</svg>
