<?xml version="1.0" encoding="utf-8"?>
<!-- Generator: Adobe Illustrator 24.1.3, SVG Export Plug-In . SVG Version: 6.00 Build 0)  -->
<svg version="1.1" id="Calque_1" xmlns="http://www.w3.org/2000/svg" xmlns:xlink="http://www.w3.org/1999/xlink" x="0px" y="0px"
	 viewBox="0 0 1920 800" style="enable-background:new 0 0 1920 800;" xml:space="preserve">
<style type="text/css">
	.st0{fill:#F9FCFF;}
	.st1{fill:none;stroke:#08070C;stroke-width:2;stroke-linecap:round;stroke-linejoin:round;stroke-miterlimit:10;}
	.st2{fill:#08070C;}
	.st3{fill:#79ACD8;}
	.st4{fill:#FFFFFF;}
	.st5{fill:#A4CEF1;}
</style>
<g>
	<polygon class="st0" points="1309.2,213.4 1158.4,323 1279.1,434.1 1480,378.2 	"/>
	<g>
		<path class="st1" d="M1407.3,599.7c5.3-22.1-11-95.1-11-95.1"/>
		<path class="st2" d="M1407,597.8c0,0,17.9-11,28.9-1.9c0,0,7.6,4.9,1.5,6.9C1437.4,602.7,1400.1,608.1,1407,597.8z"/>
		<path class="st1" d="M1466.7,599.7c5.3-22.1-4.6-65.5-4.6-65.5"/>
		<g>
			<path class="st2" d="M1466.3,597.8c0,0,17.5-11,28.9-1.9c0,0,7.6,4.9,1.5,6.9C1496.8,602.7,1459.5,608.1,1466.3,597.8z"/>
		</g>
		<path class="st1" d="M1622,474.1c-62.8,35.8-73.8-52.5-73.8-52.5"/>
		<path class="st3" d="M1406.6,226.7c-34.3-31.6-78.4,15.6-17.1,94.8c46.1,59.4-28.5,119.9-87.5,135.1c-60.5,15.6-65.5,64.3-68.9,78
			c-3.4,14.8,26.6,20.2,26.6,20.2s28.5-54.8,65.8-30.8c117.6,74.6,224.5,28.5,242.1-83c0,0,28.2-125.6-144.6-165.6
			c0,0-19.4-7.2-19-19.4C1405.1,243.1,1406.6,226.7,1406.6,226.7z"/>
		<g>
			<path class="st2" d="M1366.2,230.5c0,0,0,0,0.4,0s0.8,0,1.1,0s1.1,0,1.9,0c0.8,0,1.5,0,2.3,0c0.8,0,1.5,0,2.7,0.4
				c0.8,0.4,1.9,0.8,3,1.1c1.1,0.4,2.3,0.8,3.4,0.8c1.1,0,2.3-0.4,3.4-0.8c1.1-0.4,2.3-1.1,3-1.5c1.1-0.4,2.3-0.8,3-1.1
				c1.1-0.4,1.9-0.8,3-0.8c1.1-0.4,1.9-0.4,2.7-0.4c0.8,0,1.5,0,2.3,0c0.8,0,1.5,0,1.9,0c1.1,0,1.9,0.4,1.9,0.4l0.4,0.4
				c0,0-0.4,0.8-1.1,1.5c-0.8,0.8-1.9,1.9-3.8,2.7c-0.8,0.4-1.9,0.8-2.7,1.1c-1.1,0.4-1.9,0.8-3,0.8c-1.1,0.4-2.3,0.4-3.4,0.4
				c-0.8,0-1.1,0-1.9,0l-1.9-0.4c-1.1-0.4-2.3-0.4-3.8-0.4c-1.1,0-2.3,0.4-3.4,0.8c-1.1,0.4-2.3,0.8-3.4,0.8c-1.1,0-2.3-0.4-3-0.8
				c-0.8-0.4-1.5-0.8-2.3-1.1c-0.8-0.4-1.1-1.1-1.5-1.5c-0.4-0.4-0.8-0.8-0.8-1.1s-0.4-0.4-0.4-0.4V230.5z"/>
		</g>
		<g>
			<g>
				<path class="st2" d="M1548.5,474.5c0,0-0.4,2.3-1.9,6.1c-1.5,3.8-3.8,9.5-7.6,15.2c-1.9,3-4.2,6.1-6.9,9.1
					c-2.7,3-6.1,6.1-9.1,8.8c-3.4,2.7-6.9,5.7-10.7,8.8c-3.4,3-7.2,5.7-11,8.8c-3.8,2.7-7.6,5.7-12.2,7.6c-1.1,0.4-2.3,1.1-3,1.5
					c-1.1,0.4-2.3,0.8-3,1.5c-1.1,0.4-2.3,0.8-3,1.5c-1.1,0.4-2.3,0.8-3,1.1c-1.1,0.4-2.3,0.8-3,1.1c-1.1,0.4-2.3,0.4-3,0.8
					c-1.1,0.4-1.9,0.4-3,0.8c-1.1,0-1.9,0.4-3,0.4c-4.2,0.8-8,1.1-11.4,1.5c-3.4,0-6.9,0.4-9.9,0c-1.5,0-2.7-0.4-4.2-0.4
					c-1.1,0-2.3-0.4-3.4-0.4c-4.2-0.8-6.5-1.1-6.5-1.1v-0.4c0,0,2.3-0.4,6.5-0.4c1.9,0,4.6-0.4,7.2-0.8c0.8,0,1.5,0,2.3-0.4
					c0.8,0,1.5-0.4,2.3-0.4c1.5-0.4,3-0.4,4.9-0.8c3.4-0.8,7.2-1.1,11-2.3c1.9-0.4,3.8-0.8,5.7-1.5c1.9-0.4,4.2-1.1,6.1-1.5
					c1.1-0.4,1.9-0.8,3-0.8c1.1-0.4,1.9-0.8,3-1.1c1.1-0.4,1.9-0.8,3-1.1c1.1-0.4,1.9-0.8,3-1.1c4.2-1.5,8.4-3.4,12.6-5.7
					c4.2-2.3,8-4.6,11.8-7.6c3.4-2.7,6.9-6.1,9.5-9.5c2.7-3.4,5.3-6.9,7.6-9.9c2.3-3,4.6-6.1,6.9-8.8c2.3-2.7,3.8-5.3,5.3-7.6
					s3-4.6,4.2-6.1c2.3-3.4,3.4-5.3,3.4-5.3L1548.5,474.5z"/>
			</g>
		</g>
		<g>
			<path class="st4" d="M1248.6,525.5c0,0,0-0.4,0-0.8c0-0.4,0-1.1,0-2.3c0-1.9,0-4.2,1.1-7.2c0.4-1.5,0.8-3,1.9-4.6
				c0.8-1.5,1.9-3,3.4-4.6c1.1-1.5,2.7-3,3.4-4.6c0.4-0.8,1.1-1.5,1.5-2.7c0.4-0.8,0.8-1.9,1.5-2.7l1.5-2.7c0.4-0.8,1.1-1.5,1.9-2.3
				c0.8-0.8,1.1-1.5,1.9-2.3c0.8-0.8,1.5-1.1,2.3-1.9c0.8-0.8,1.5-1.1,2.3-1.9c0.8-0.4,1.5-0.8,2.3-1.5c0.8-0.4,1.5-0.8,2.3-1.1
				c0.8-0.4,1.5-0.4,2.3-0.8c1.5-0.4,2.7-0.8,4.2-1.1c1.1,0,2.3-0.4,3.4-0.4c1.9,0,2.7,0,2.7,0v0.4c0,0-0.8,0.8-2.3,1.5
				c-0.8,0.4-1.5,1.1-2.7,1.5c-0.8,0.8-1.9,1.5-3,2.3c-0.8,0.4-1.1,0.8-1.9,1.1c-0.8,0.4-1.1,0.8-1.9,1.5c-0.8,0.4-1.1,0.8-1.9,1.1
				c-0.8,0.4-1.1,1.1-1.9,1.5c-0.8,0.4-1.5,1.1-2.3,1.5c-0.8,0.4-1.5,1.1-2.3,1.5c-1.5,1.1-3,2.3-4.6,3.4s-2.7,2.7-3.8,4.2
				c-1.1,1.5-1.9,3.4-2.3,4.9c-0.4,1.9-0.8,3.4-1.5,4.9c-0.4,1.5-1.1,3-1.9,4.2c-0.8,1.1-1.1,2.3-1.9,3.4c-0.4,1.1-1.1,1.9-1.5,2.7
				c-0.8,1.5-1.5,2.3-1.5,2.3L1248.6,525.5z"/>
		</g>
		<path class="st2" d="M1327,376.7c2.3,6.1,6.9,9.9,10.3,8.8c3-1.1,3.8-7.2,1.5-13.3c-2.3-6.1-6.9-9.9-10.3-8.8
			C1325.5,364.5,1324.8,370.6,1327,376.7z"/>
		<path class="st1" d="M1336.6,383.9c0,0,34.3,96.7,76.9,43.8"/>
		<path class="st2" d="M1637.2,471.4c5.7-5.3,8-12.6,5.3-15.6c-3-3-9.9-1.1-15.6,4.6c-5.7,5.3-8,12.6-5.3,15.6
			C1624.7,478.7,1631.5,476.8,1637.2,471.4z"/>
	</g>
	<g>
		<g>
			<path class="st4" d="M1621.2,230.9c6.1,0,11.8-5.3,11.4-11.4s-4.9-11.4-11.4-11.4c-6.1,0-11.8,5.3-11.4,11.4
				C1609.8,225.6,1614.8,230.9,1621.2,230.9L1621.2,230.9z"/>
		</g>
	</g>
	<g>
		<g>
			<path class="st5" d="M1705,252.6c-11.4-6.5-25.5-2.3-37.3-7.6c-10.3-4.6-16-16-25.9-21.7c-8-4.6-16.4-4.6-25.1-2.3
				c-8.8,2.3-17.9,6.1-24.7,11.4c-6.1,4.9-11,12.9-7.6,20.9c5.3,12.9,20.9,14.1,32,18.6c13.3,4.9,24,14.5,35.4,22.1
				c11.4,7.6,24.4,12.6,38.4,12.6c13.3,0,28.5-4.2,29.7-19.4C1721.3,274.7,1716,259.5,1705,252.6c-0.8-0.8-1.9,0.8-0.8,1.5
				c10.3,6.5,14.5,19.8,14.5,31.2c-0.4,7.2-3,12.9-9.5,16c-5.7,2.7-12.2,3.4-18.6,3.4c-13.7,0-26.3-4.9-37.7-12.2
				c-9.9-6.5-19.4-14.1-30.1-19.8c-5.7-2.7-11.4-4.6-17.1-6.1c-6.1-1.9-12.2-4.2-16.4-9.1c-7.2-8-3.4-17.1,4.2-23.2
				c6.5-5.7,15.2-9.1,24-11.4c8.4-2.3,16.4-2.3,24.4,1.9c9.5,5.7,15.2,16.7,25.9,21.7c11.8,5.3,25.9,1.5,37.3,7.6
				C1705,254.5,1706.1,253,1705,252.6z"/>
		</g>
	</g>
</g>
</svg>
