<?xml version="1.0" encoding="utf-8"?>
<!-- Generator: Adobe Illustrator 24.1.3, SVG Export Plug-In . SVG Version: 6.00 Build 0)  -->
<svg version="1.1" id="Calque_1" xmlns="http://www.w3.org/2000/svg" xmlns:xlink="http://www.w3.org/1999/xlink" x="0px" y="0px"
	 viewBox="0 0 1267 360.5" style="enable-background:new 0 0 1267 360.5;" xml:space="preserve">
<style type="text/css">
	.st0{fill:#2B2B3A;}
</style>
<g id="Calque_2_1_">
	<g id="Layer_1">
		<path class="st0" d="M56.3,220.1l79.2-87.1c0.4-0.4,0.9-0.7,1.5-0.7h67.3c1.1,0,2,0.9,2,2c0,0.5-0.2,1-0.5,1.4l-94.5,101.8
			l101.2,114c0.7,0.8,0.6,2.1-0.2,2.8c-0.4,0.3-0.8,0.5-1.3,0.5h-68.8c-0.6,0-1.1-0.2-1.5-0.7l-84.4-96.5v95.1c0,1.1-0.9,2-2,2H2
			c-1.1,0-2-0.9-2-2V2c0-1.1,0.9-2,2-2h52.3c1.1,0,2,0.9,2,2V220.1z"/>
		<path class="st0" d="M301.4,23.5c20.5,0,37.1,16.6,37.1,37.1s-16.6,37.1-37.1,37.1S264.3,81,264.3,60.6c0,0,0,0,0,0
			c-0.1-20.4,16.3-37,36.6-37.1C301.1,23.5,301.3,23.5,301.4,23.5z M275.3,132.4h52.3c1.1,0,2,0.9,2,2v218.5c0,1.1-0.9,2-2,2h-52.3
			c-1.1,0-2-0.9-2-2V134.4C273.3,133.2,274.1,132.4,275.3,132.4z"/>
		<path class="st0" d="M392.4,22.9h52.3c1.1,0,2,0.8,2,1.9c0,0,0,0,0,0V353c0,1.1-0.9,1.9-2,1.9c0,0,0,0,0,0h-52.3
			c-1.1,0-2-0.8-2-1.9V24.8C390.4,23.7,391.3,22.9,392.4,22.9z"/>
		<path class="st0" d="M744.4,243.6c0,65.2-52.6,116.9-118.7,116.9s-118.7-51.6-118.7-116.9c0-65.7,52.6-116.9,118.7-116.9
			S744.4,177.9,744.4,243.6z M687.2,243.6c0-34.7-23.5-64.3-61.5-64.3s-61.5,29.6-61.5,64.3s23.5,64.3,61.5,64.3
			S687.2,278.3,687.2,243.6z"/>
		<path class="st0" d="M861.3,220.1l79.2-87.1c0.4-0.4,0.9-0.7,1.5-0.7h67.3c1.1,0,2,0.9,2,2c0,0.5-0.2,1-0.5,1.4l-94.5,101.8
			l101.2,114c0.7,0.8,0.6,2.1-0.2,2.8c-0.4,0.3-0.8,0.5-1.3,0.5h-68.8c-0.6,0-1.1-0.2-1.5-0.7l-84.4-96.5v95.1c0,1.1-0.9,2-2,2
			h-52.3c-1.1,0-2-0.9-2-2V2c0-1.1,0.9-2,2-2h52.3c1.1,0,2,0.9,2,2V220.1z"/>
		<path class="st0" d="M1267,209.8v143c0,1.1-0.9,2-2,2h-48.1c-1.1,0-2-0.9-2-2v-26.1c0,0-23,33.8-73.2,33.8
			c-41.8,0-80.3-27.2-80.3-74.6c0-42.7,39-73.7,87.3-73.7c40.8,0,62,16,62,16v-12.7c0-29.1-28.2-38.5-47.9-38.5
			c-27.9,0-57.1,12.2-64.8,15.6c-1,0.4-2.2,0-2.6-1c0,0,0,0,0-0.1l-16.8-42.8c-0.4-1,0-2.1,1-2.6c8.3-3.7,45.2-19.4,86.1-19.4
			C1229.5,126.7,1267,159.1,1267,209.8z M1210.7,287.7v-23c0,0-20.2-11.3-50.7-11.3c-17.4,0-41.3,7.5-41.3,31.4
			c0,23.5,23,28.6,40.4,28.6C1192.9,313.5,1210.7,287.7,1210.7,287.7L1210.7,287.7z"/>
	</g>
</g>
</svg>
