<?xml version="1.0" encoding="utf-8"?>
<svg version="1.1" id="Layer_1" x="0px" y="0px" viewBox="0 0 1686 441.8" style="enable-background:new 0 0 1686 441.8;" xmlns="http://www.w3.org/2000/svg">
  <style type="text/css">
	.st0{fill:#FF80B4;}
	.st1{fill:#1A1A1A;}
	.st2{fill:#FFCAE2;}
	.st3{fill:#FFF0F7;}
</style>
  <g>
    <g transform="matrix(1.110077, 0, 0, 1.110077, -514.042236, -16.814871)" style="">
      <path class="st0" d="M705,155.5c0,0-3.4-43.6,9.6-68.3s42.1-43.2,42.1-43.2s4.5,49.1-9.2,71.5C731.4,141.9,705,155.5,705,155.5z" style="fill: rgb(34, 34, 34);"/>
      <g>
        <path d="M519.9,251.8l74.8-82.3h68.2l-91.5,98.5L669,378h-69.5L519.9,287V378h-52.8V45.5h52.8V251.8z" style="fill: rgb(34, 34, 34);"/>
        <path d="M757.4,169.5L757.4,169.5l0,208.5h-52.8V222.3C704.6,193.2,728.2,169.5,757.4,169.5z" style="fill: rgb(34, 34, 34);"/>
        <path d="M877.5,45.5L877.5,45.5V378h-52.8V98.3C824.7,69.1,848.3,45.5,877.5,45.5z" style="fill: rgb(34, 34, 34);"/>
        <path d="M1144.9,273.8c0,61.1-49.3,109.5-111.3,109.5c-62,0-111.3-48.4-111.3-109.5c0-61.6,49.3-109.5,111.3-109.5 C1095.6,164.3,1144.9,212.2,1144.9,273.8z M1091.2,273.8c0-32.5-22-60.3-57.6-60.3c-35.6,0-57.6,27.7-57.6,60.3 c0,32.6,22,60.3,57.6,60.3C1069.2,334,1091.2,306.3,1091.2,273.8z" style="fill: rgb(34, 34, 34);"/>
        <path d="M1242.5,251.8l74.8-82.3h68.2l-91.5,98.5l97.7,110h-69.5l-79.6-91.1V378h-52.8V45.5h52.8V251.8z" style="fill: rgb(34, 34, 34);"/>
        <path d="M1597.5,242.1V378h-48.8v-26.4c0,0-21.6,31.7-68.6,31.7c-39.2,0-75.2-25.5-75.2-69.9c0-40,36.5-69.1,81.8-69.1 c38.3,0,58.1,15,58.1,15v-11.9c0-27.3-26.4-36.1-44.9-36.1c-30.4,0-62.5,15.4-62.5,15.4l-17.2-43.5c0,0,38.7-18.9,82.3-18.9 C1562.3,164.3,1597.5,194.6,1597.5,242.1z M1544.7,315.1v-21.6c0,0-18.9-10.6-47.5-10.6c-16.3,0-38.7,7-38.7,29.5 c0,22,21.6,26.8,37.8,26.8C1528,339.3,1544.7,315.1,1544.7,315.1z" style="fill: rgb(34, 34, 34);"/>
      </g>
    </g>
  </g>
</svg>