<?xml version="1.0" encoding="utf-8"?>
<!-- Generator: Adobe Illustrator 24.1.3, SVG Export Plug-In . SVG Version: 6.00 Build 0)  -->
<svg version="1.1" id="Calque_1" xmlns="http://www.w3.org/2000/svg" xmlns:xlink="http://www.w3.org/1999/xlink" x="0px" y="0px"
	 viewBox="0 0 1920 800" style="enable-background:new 0 0 1920 800;" xml:space="preserve">
<style type="text/css">
	.st0{fill:#FD9F62;}
	.st1{fill:#FFFFFF;}
	.st2{fill:none;stroke:#08070C;stroke-width:2;stroke-linecap:round;stroke-linejoin:round;stroke-miterlimit:10;}
	.st3{fill:#08070C;}
	.st4{fill:#FFC5C3;}
	.st5{fill:#FFCEC4;}
	.st6{fill:#FF7082;}
	.st7{fill:#FFE3E0;}
</style>
<g id="BANNER1C">
	<g>
		<g>
			<g>
				<g>
					<path class="st0" d="M1065.1,467c-16.2-1.6-35.1-1.4-49.1,8.3c-7,4.9-11.9,11.9-14.3,20.2c-3,10.5-2.5,22.9,0.6,33.2
						c2.9,8.9,8.3,17,16.2,22.1c8.4,5.4,19.2,7.8,29.1,6.2c4.9-0.8,9.7-2.7,13.7-5.9c3.8-3.2,6.7-7.3,8.7-11.8
						c4.4-9.4,7-19.7,14.9-27c3.8-3.5,8.3-6.5,10.6-11.3c2.1-4.4,2.2-9.5,0.6-14.1c-3.3-10.5-13-16.2-23.2-18.6
						C1070.7,467.8,1068,467.3,1065.1,467c-1.6-0.2-1.6,2.2,0,2.4c10.3,1.1,21.9,4.4,27.3,14c2.4,4.1,3.5,9.2,2.4,13.8
						c-1.3,5.2-5.4,8.6-9.4,11.8c-3.5,3-6.7,6.2-8.9,10.3c-2.2,4-3.8,8.3-5.6,12.4c-3.7,9.1-8.3,17.9-18.1,21.4
						c-9.2,3.3-20.2,1.9-28.9-2.4c-8.1-4-14.1-10.6-17.6-18.9c-4-9.4-4.8-20.2-3.3-30.2c1.3-8.7,5.2-17,12.1-22.7
						c13.5-11.3,33.5-11.4,50.2-9.7C1066.7,469.6,1066.7,467.2,1065.1,467z"/>
				</g>
			</g>
			<g>
				<g>
					<path class="st1" d="M982.1,348.5c5.7,0,11.2-5,10.9-10.9s-4.8-10.9-10.9-10.9c-5.7,0-11.2,5-10.9,10.9
						C971.5,343.5,976,348.5,982.1,348.5L982.1,348.5z"/>
				</g>
			</g>
			<g>
				<polygon class="st1" points="1178,207.5 1213.8,210.5 1234.4,251.7 1188.4,291.2 1157.7,267.4 				"/>
				<g>
					<g>
						<g>
							<g>
								<path class="st2" d="M1370.8,541.6c-17.8-12.5-17.8-65.7-17.8-65.7"/>
								<path class="st3" d="M1373.2,541.3c0,0-12.5-7.6-20.5-1.4c0,0-5.2,3.5-1.1,4.9C1351.6,544.8,1378,548.6,1373.2,541.3z"/>
							</g>
							<g>
								<path class="st2" d="M1312.1,533.5c-16.2-12.5-5.7-36.7-5.7-36.7"/>
								<g>
									<path class="st3" d="M1312.7,530.9c0,0-14.6,1.1-17.3,11c0,0-2.2,5.9,1.9,4.6C1297.4,546.4,1320.8,533.9,1312.7,530.9z"/>
								</g>
							</g>
							<path class="st4" d="M1405.6,315.7c0,0,51.6,15.4,10.2,71.8h-12.5l-1.3-57.2L1405.6,315.7z"/>
							<path class="st2" d="M1263.1,397.9c-14.1-2.5-40.8,39.2-61.5,44.9"/>
							<path class="st5" d="M1410.2,337c0,0,18.3-3,28.3,6.8s-4.8,15.2-9.2,15.7c-4.4,0.5-19.4-4.9-22.1,3.2L1410.2,337z"/>
							<path class="st6" d="M1409.7,372.2c0,0,32.9,61.6-15.9,100c-48.6,38.4-82.4,33-103.7,29.5c-21.4-3.5-34.9,1-44.9-13.8
								s-21-80.5,42.4-117.8s39.4-47.5,39.4-47.5l45.7,29.5L1409.7,372.2z"/>
							<path class="st6" d="M1401.6,383.5c0,0-30.8-3.7-37.5-19.7c0,0,24.1-34.9-7.6-42.1c-31.8-7.1-6.7,11.3-14.3,22.5
								c-7.6,11.3-22.9-12.7-6.5-28.9l3-7c0,0-9.2-18.6-6.7-30.3c2.5-11.8,13.7-7.9,16.7-4c2.7,3.7,7.3,22.5,7.3,22.5
								s3.8,4.8,7.3-0.5c3.3-5.2-3.5-30.5,17-25.1c20.5,5.4-0.3,24.8,0.5,28.1c0.6,3.3,4,4,7.8,0.5c3.8-3.5,10.3-19.7,23.8-16.4
								s14.5,20.3,0.3,29.4c0,0-5.9,4-2.7,6.4C1413.2,321.7,1435.6,352.4,1401.6,383.5z"/>
							<path class="st5" d="M1366.2,325.8c0,0-28.1-31.6-59.7-27.9c0,0-14.3,3.3-6.2,18.3s33.2,18.3,31.6,37.8
								c-1.6,19.4,25.9,12.1,32.1,10C1370.2,361.7,1379.4,335.4,1366.2,325.8z"/>
							<g>
								<g>
									<path class="st7" d="M1406.9,382.5c0,0-0.2,0.8-0.5,2.1c-0.2,0.6-0.5,1.4-1,2.1c-0.5,0.6-1,1.3-1.7,1.7
										c-0.8,0.5-1.7,0.6-2.9,1c-1.1,0.2-2.5,0.5-4,0.5c-1.4,0-3-0.2-4.6-0.8c-1.4-0.5-2.9-1.3-4.3-2.2c-1.4-0.8-2.7-1.9-4-2.7
										c-1.3-0.8-2.7-1.6-4-2.4s-2.5-1.6-3.8-2.2c-1.3-0.6-2.4-1.3-3.5-1.7c-1.1-0.5-2.1-1-3-1.4c-1-0.5-1.7-0.8-2.4-1
										c-1.4-0.5-2.2-0.8-2.2-0.8l-0.2,0.3c0,0,0.5,0.6,1.6,1.7c0.5,0.5,1.1,1.1,1.9,1.9c0.8,0.6,1.6,1.4,2.5,2.2
										c1.9,1.6,4.3,3.2,7.1,4.6c1.4,0.6,2.9,1.3,4.3,1.9c1.6,0.6,3.2,1.1,4.8,1.4c0.8,0.2,1.6,0.5,2.4,0.6
										c0.8,0.2,1.6,0.5,2.4,0.6c0.8,0.3,1.6,0.5,2.2,0.8c0.3,0.2,0.8,0.3,1.1,0.5c0.3,0.2,0.8,0.3,1.1,0.5c1.4,0.6,3.2,1.1,4.8,1
										c1.6,0,3.3-0.6,4.4-1.7c1.3-1,1.9-2.4,2.2-3.5c0.3-1.1,0.2-2.2,0.2-2.9c-0.2-0.8-0.3-1.4-0.5-1.7c-0.2-0.3-0.3-0.6-0.3-0.6
										L1406.9,382.5z"/>
								</g>
							</g>
							<g>
								<g>
									<path class="st7" d="M1362.1,368.6c0,0-0.6,0-1.7,0s-2.7,0.2-4.4,0.6c-1,0.2-1.9,0.3-2.9,0.6c-1,0.3-2.1,0.8-3,1.3
										c-1.1,0.5-2.2,0.8-3.5,1c-1.3,0-2.4,0-3.7-0.5c-1.1-0.3-2.2-0.8-3.3-1.1c-1.1-0.3-2.1-0.8-2.9-1.3
										c-0.5-0.3-0.8-0.5-1.1-0.8c-0.3-0.3-0.8-0.5-1.1-0.8c-0.6-0.5-1.3-1.1-1.7-1.7c-0.5-0.6-1-1.3-1.3-1.9
										c-0.3-0.6-0.6-1.1-1-1.6c-0.5-1-0.8-1.6-0.8-1.6h-0.3c0,0-0.2,0.6-0.3,1.7c0,0.6,0,1.3,0,2.2c0.2,0.8,0.3,1.7,0.8,2.9
										c0.5,1,1.1,2.1,1.9,3c0.5,0.5,1,1,1.4,1.3c0.6,0.3,1.1,0.8,1.7,1c1.3,0.6,2.5,1,4,1.1c0.6,0.2,1.4,0.2,2.1,0.2
										s1.3-0.2,2.1-0.2c1.3-0.2,2.5-0.5,3.8-0.5c1.3-0.2,2.5-0.2,3.7,0c1.3,0.2,2.4,0.2,3.5,0c1.1-0.2,2.1-0.5,3-0.8
										c1.7-0.6,3.2-1.6,4.1-2.2s1.4-1.3,1.4-1.3L1362.1,368.6z"/>
								</g>
							</g>
							<g>
								<g>
									<path class="st3" d="M1404.8,321.4c0,0,0.5,1,1.1,2.4c0.3,0.8,0.8,1.7,1.1,2.7c0.5,1.1,1,2.2,1.4,3.5
										c0.5,1.3,1,2.7,1.6,4.3c0.5,1.4,1.3,3,1.7,4.8c0.5,1.7,1,3.5,1,5.4c0,1.9-0.3,3.8-0.8,5.6c-0.5,1.9-1.3,3.7-1.7,5.4
										c-0.6,1.7-1.3,3.3-2.1,4.9c-0.8,1.6-1.4,3-2.2,4.6c-0.8,1.4-1.3,2.9-2.1,4.1c-0.3,0.6-0.6,1.3-1,1.9s-0.6,1.1-1,1.6
										c-0.3,0.5-0.5,1-0.8,1.4c-0.3,0.5-0.5,0.8-0.6,1.3c-0.8,1.4-1.3,2.4-1.3,2.4l0.3,0.3c0,0,0.8-0.6,2.1-1.7
										c0.6-0.6,1.4-1.3,2.2-2.2c0.5-0.5,1-1,1.3-1.4c0.5-0.5,1-1.1,1.3-1.7c1-1.1,1.7-2.5,2.7-4c0.8-1.6,1.7-3.2,2.2-4.9
										c0.6-1.7,1.3-3.7,1.6-5.6c0.5-1.9,0.5-4,0.6-6c0-2.1,0-4-0.2-5.9c0-1.9,0-3.8,0-5.7c0-1.9-0.2-3.8-0.6-5.4
										c-0.5-1.7-1.1-3.2-1.7-4.6c-0.6-1.4-1.4-2.5-2.2-3.5c-0.8-1-1.4-1.7-2.1-2.4c-1.3-1.3-2.2-1.7-2.2-1.7L1404.8,321.4z"/>
								</g>
							</g>
							<g>
								<g>
									<g>
										<path class="st3" d="M1366.7,337.9c0,0,0-0.3-0.2-0.6c-0.2-0.5-0.3-1.1-0.6-1.9c-0.3-0.8-0.8-1.7-1.4-2.9
											c-0.6-1-1.3-2.2-2.2-3.3c-0.5-0.5-1-1.1-1.4-1.7c-0.5-0.6-1.1-1.1-1.7-1.6c-0.6-0.6-1.4-1-2.1-1.4c-0.8-0.5-1.6-1-2.4-1.4
											c-0.8-0.5-1.6-0.8-2.4-1.3c-0.8-0.5-1.6-1-2.4-1.4c-1.6-1-3-2.2-4.6-3.3l-2.2-1.7c-0.8-0.5-1.6-1-2.4-1.4
											c-1.6-1-3.3-1.9-4.9-2.5c-1.6-0.8-3.2-1.4-4.8-2.1c-1.6-0.5-3-1-4.4-1.3c-1.4-0.3-2.7-0.6-3.8-0.8c-1.1-0.2-2.2-0.3-3-0.3
											c-1.7-0.2-2.7-0.2-2.7-0.2l-0.2,0.3c0,0,0.8,0.5,2.4,1.3c0.8,0.3,1.6,0.8,2.7,1.3c1.1,0.5,2.2,1,3.5,1.6
											c1.3,0.6,2.7,1.3,4.1,1.7c1.4,0.6,3,1.3,4.6,1.9c1.6,0.6,3.3,1.3,4.9,1.9c1.7,0.6,3.5,1.3,5.2,2.1
											c0.8,0.3,1.7,0.6,2.5,1.1c0.8,0.5,1.6,1,2.4,1.4c1.6,1,2.9,2.2,4.1,3.5c0.6,0.6,1.1,1.3,1.7,1.9s1.1,1.3,1.6,1.7
											c0.5,0.6,1.1,1.1,1.6,1.6c0.5,0.5,1.1,1,1.6,1.4c0.5,0.5,1,1,1.4,1.4c0.5,0.5,1,0.8,1.3,1.3c0.3,0.5,0.8,0.8,1.1,1.1
											c0.3,0.3,0.6,0.6,1,1c0.6,0.6,1,1.1,1.3,1.4c0.3,0.3,0.5,0.5,0.5,0.5L1366.7,337.9z"/>
									</g>
								</g>
							</g>
							<g>
								<g>
									<path class="st1" d="M1350.2,486.9c0,0-1,0.2-2.5,0.6c-0.8,0.2-1.7,0.5-2.9,0.8c-1.1,0.3-2.4,0.6-3.7,1
										c-1.4,0.3-2.9,0.8-4.3,1.3c-1.6,0.5-3.2,1.3-4.8,1.9c-1.7,0.6-3.5,1.1-5.4,1.4c-1.9,0.3-3.8,0.2-5.7,0s-3.8-0.5-5.7-0.5
										c-1.9-0.2-3.7-0.3-5.4-0.5c-1.7-0.3-3.5-0.5-5.1-0.5c-1.6-0.2-3.2-0.3-4.6-0.3s-2.7-0.2-4-0.2c-1.1-0.2-2.2-0.2-3-0.2
										c-1.7,0-2.7,0-2.7,0l-0.2,0.3c0,0,0.8,0.5,2.4,1.1c0.8,0.3,1.7,0.8,2.9,1.1c1.1,0.5,2.4,0.8,3.8,1.1c1.4,0.3,3,0.8,4.6,1
										c1.7,0.2,3.5,0.3,5.2,0.5c1.9,0,3.8,0,5.7-0.2s3.8-0.5,5.9-0.8c1.9-0.5,3.8-0.8,5.7-1.1s3.8-0.3,5.6-0.5
										c1.9,0,3.7-0.2,5.2-0.5c0.8-0.2,1.6-0.5,2.4-0.6c0.8-0.3,1.4-0.5,2.2-0.8c1.4-0.6,2.5-1.1,3.7-1.7c1.1-0.6,1.9-1.3,2.7-1.7
										c1.4-1.1,2.1-1.9,2.1-1.9L1350.2,486.9z"/>
								</g>
							</g>
							<g>
								<g>
									<path class="st1" d="M1340.6,358.6c0,0,0.2-0.2,0.2-0.5c0.2-0.3,0.3-0.6,0.5-1.3c0.2-0.5,0.3-1.3,0.5-1.9
										c0-0.3,0.2-0.8,0.2-1.3s0-1,0-1.4c0-0.5,0-1-0.2-1.4c0-0.5-0.2-1.1-0.3-1.6c-0.3-1.1-0.8-2.1-1.4-3.2
										c-0.5-1.1-1.1-2.1-1.6-3.2c-0.5-1.1-1.1-2.2-1.4-3.3c-0.6-1.1-1.1-2.2-1.7-3.3c-0.8-1-1.4-2.1-2.2-2.9s-1.6-1.6-2.5-2.4
										c-0.8-0.6-1.7-1.1-2.5-1.7c-0.5-0.3-0.8-0.5-1.1-0.6c-0.3-0.2-0.8-0.3-1.1-0.5c-0.6-0.3-1.3-0.5-1.9-0.8
										c-1-0.3-1.6-0.5-1.6-0.5l-0.2,0.2c0,0,0.5,0.5,1.3,1.3c0.3,0.3,0.8,0.8,1.4,1.3c0.3,0.3,0.6,0.5,1,0.8c0.3,0.3,0.6,0.6,1,1
										c0.6,0.6,1.4,1.3,2.1,1.9c0.6,0.8,1.4,1.4,2.4,2.2c0.8,0.8,1.6,1.6,2.4,2.4c0.8,0.8,1.6,1.7,2.4,2.5c0.8,1,1.4,1.9,2.1,3
										c0.5,1.1,0.8,2.2,1,3.3c0.2,1.1,0.2,2.2,0.3,3.2c0.2,1,0.3,1.9,0.5,2.7c0.2,0.8,0.3,1.6,0.3,2.4c0.2,0.8,0.2,1.3,0.3,1.9
										c0.2,1.1,0.2,1.7,0.2,1.7L1340.6,358.6z"/>
								</g>
							</g>
							<g>
								<g>
									<path class="st1" d="M1401.8,290.9c0,0-0.3,0-0.8,0c-0.5,0-1.1,0.2-1.7,0.5c-0.3,0.2-0.6,0.3-1,0.6
										c-0.3,0.3-0.5,0.8-0.6,1.1c-0.2,0.5-0.5,0.8-0.8,1.1c-0.3,0.3-0.8,0.5-1.3,0.6c-0.5,0.2-1,0.5-1.3,0.6
										c-0.3,0.3-0.8,0.6-1,1c-0.3,0.3-0.6,0.6-0.8,1c-0.2,0.3-0.3,0.8-0.5,1.1c-0.2,0.3-0.2,0.6-0.2,1s0,0.6,0,0.8
										c0,0.5,0.2,0.8,0.2,0.8l0.3,0.2c0,0,0.3-0.2,0.6-0.3c0.2-0.2,0.3-0.3,0.6-0.5c0.2-0.2,0.5-0.3,0.6-0.6c0.5-0.5,1-1,1.4-1.6
										c0.2-0.3,0.3-0.6,0.6-1.1c0.2-0.3,0.3-0.8,0.5-1.3c0.2-0.5,0.3-0.8,0.6-1.1c0.3-0.3,0.6-0.5,1.1-0.6
										c0.5-0.2,0.8-0.2,1.3-0.3c0.3-0.2,0.6-0.5,0.8-0.6c0.5-0.5,0.8-1,1-1.4c0.2-0.3,0.3-0.6,0.3-0.6L1401.8,290.9z"/>
								</g>
							</g>
							<g>
								<g>
									<path class="st1" d="M1369.1,281.9c0,0-0.3,0.2-0.6,0.5c-0.3,0.3-0.6,0.8-1,1.4c-0.2,0.3-0.2,0.6-0.2,1.1
										c0,0.3,0.2,0.8,0.3,1.3c0.2,0.5,0.2,0.8,0.2,1.3s-0.2,0.8-0.5,1.3c-0.2,0.5-0.5,0.8-0.5,1.3c-0.2,0.5-0.2,0.8-0.3,1.3
										c-0.2,0.8,0,1.6,0.3,2.2c0.2,0.6,0.5,1.1,0.8,1.6c0.3,0.3,0.5,0.5,0.5,0.5h0.3c0,0,0.2-0.2,0.3-0.6c0.2-0.3,0.3-1,0.5-1.6
										c0.2-0.6,0.3-1.3,0.2-2.1c0-0.3-0.2-0.8-0.2-1.3c0-0.5-0.2-0.8-0.3-1.3s-0.3-0.8-0.2-1.3c0-0.5,0.2-0.8,0.5-1.1
										c0.3-0.3,0.5-0.6,0.6-1.1c0.2-0.3,0.2-0.6,0.2-1c0-0.6-0.2-1.3-0.3-1.6c-0.2-0.5-0.3-0.6-0.3-0.6L1369.1,281.9z"/>
								</g>
							</g>
							<g>
								<g>
									<path class="st1" d="M1334.8,281.1c0,0-0.3,0.3-0.5,1c-0.2,0.6-0.5,1.4-0.5,2.4c0,0.5,0,1.1,0.2,1.6
										c0.2,0.6,0.5,1.1,0.8,1.7c0.3,0.6,0.5,1.1,0.6,1.7c0.2,0.6,0.2,1.3,0.2,2.1c0,0.6,0,1.4,0.2,2.1c0.2,0.6,0.3,1.3,0.5,1.9
										c0.2,0.6,0.5,1.1,0.8,1.7c0.3,0.5,0.6,1,1,1.4c0.3,0.3,0.6,0.8,1,1.1s0.6,0.5,1,0.6c0.5,0.3,0.8,0.5,0.8,0.5l0.2-0.2
										c0,0,0-0.3-0.2-1c-0.2-0.6-0.3-1.4-0.6-2.2c-0.2-0.5-0.3-1-0.5-1.4c-0.2-0.5-0.5-1-0.6-1.6c-0.3-0.5-0.6-1.1-0.8-1.6
										c-0.3-0.6-0.6-1.1-1-1.7c-0.3-0.6-0.6-1.1-0.8-1.7c-0.2-0.6-0.2-1.3,0-1.9c0.2-0.6,0.2-1.3,0.2-1.7s-0.2-1.1-0.2-1.6
										c-0.2-1-0.5-1.7-0.6-2.2c-0.2-0.6-0.5-1-0.5-1H1334.8z"/>
								</g>
							</g>
							<g>
								<g>
									<path class="st1" d="M1378.3,360c0,0,0.5-0.6,1.1-1.9c0.3-0.6,0.6-1.4,1-2.4c0.3-1,0.6-2.1,0.8-3.2
										c0.2-1.1,0.5-2.5,0.5-3.8c0-1.4-0.2-2.9-0.3-4.3s-0.5-3-0.6-4.6c-0.2-1.6-0.3-3.2-0.5-4.8c-0.2-1.6-0.5-3.2-1.1-4.8
										c-0.3-0.8-0.6-1.4-0.8-2.2c-0.3-0.8-0.6-1.4-1.1-2.1c-0.8-1.4-1.6-2.5-2.5-3.7c-0.5-0.5-1-1.1-1.4-1.6
										c-0.5-0.5-1-1-1.4-1.3c-1-0.8-1.9-1.4-2.7-1.9c-0.8-0.5-1.6-1-2.2-1.3c-1.3-0.6-2.1-0.8-2.1-0.8l-0.2,0.2
										c0,0,0.6,0.6,1.6,1.6c0.5,0.5,1.1,1.1,1.7,1.7c0.6,0.6,1.4,1.4,2.1,2.4c0.3,0.5,0.8,1,1.1,1.3c0.3,0.5,0.8,1,1.1,1.4
										s0.8,1.1,1.1,1.6c0.3,0.6,0.8,1.1,1.1,1.7c0.3,0.6,0.8,1.3,1.1,1.9s0.6,1.3,1,1.9c0.6,1.4,1.3,2.7,1.7,4.3
										c0.6,1.4,1,3,1.1,4.4c0.2,1.6,0.2,3,0,4.4c-0.2,1.4-0.5,2.9-0.6,4.1c-0.2,1.3-0.3,2.5-0.5,3.7c-0.3,2.4-0.5,4.3-0.6,5.6
										c-0.2,1.4-0.2,2.2-0.2,2.2L1378.3,360z"/>
								</g>
							</g>
							<path class="st2" d="M1406.4,424.5c0,0,11,51.8,60.2,38.9"/>
							<path class="st3" d="M1471.8,467c6.8-0.8,12.1-3.8,11.6-6.4c-0.3-2.7-6.2-4.1-12.9-3.3c-6.8,0.8-12.1,3.8-11.6,6.4
								C1459.3,466.5,1465,468,1471.8,467z"/>
							<path class="st3" d="M1192,439.2c0,0-12.2,4.6-0.8,6.5c10.8,1.7,13.5-1,13.5-1s7.8-8.1-1.7-7.1
								C1194.9,438.3,1192,439.2,1192,439.2z"/>
						</g>
						<g>
							<path class="st2" d="M1698.6,536.1c-36-1.6-44.6-48.9-44.6-48.9"/>
							<path class="st3" d="M1698.4,534.3c0,0-11.9,2.1-13.3,10.5c0,0-1.3,5.1,2.1,3.7C1687,548.5,1705.2,536.2,1698.4,534.3z"/>
							<g>
								<path class="st2" d="M1595.7,544c-3.2-12.9,5.9-55.3,5.9-55.3"/>
								<path class="st3" d="M1596.3,542.8c0,0-10.3-6.2-16.8-1c0,0-4.3,3-0.8,4C1578.7,545.9,1600.3,548.8,1596.3,542.8z"/>
								<path class="st5" d="M1499.3,415.7c0.2,11.6,6.7,21.6,16.2,26.2c-0.5,1.7-0.8,3.7-0.8,5.6c0.2,9.5,7.5,17.3,16.5,17.5
									c0,0.8-0.2,1.7-0.2,2.7c0.2,15.7,12.5,28.3,27.6,28.1c5.9,0,11.4-2.1,15.9-5.4c4.8,2.4,10.2,3.7,15.7,3.7
									c16.4-0.2,29.9-11.6,34.1-27.2c3.5,16.8,18.1,29.2,35.3,29.1c5.7,0,11-1.4,15.7-4c4.4,3.3,10,5.2,15.9,5.1
									c15.1-0.2,27.3-13,27.2-28.7c0-1,0-1.7-0.2-2.7c9.1-0.5,16.4-8.3,16.2-17.8c0-1.9-0.3-3.8-1-5.6
									c9.4-4.8,15.9-14.9,15.7-26.5c-0.2-12.2-7.5-22.5-17.8-26.8c2.2-3.7,3.5-7.9,3.5-12.5c-0.2-9.7-6-17.9-14.3-21.1
									c0-0.2,0-0.2,0-0.3c-0.2-17.6-14-31.8-31-31.6c-5.7,0-11.1,1.7-15.7,4.6c-6.2-5.2-14.3-8.4-22.9-8.3
									c-10.6,0.2-20,4.9-26.5,12.7c-6.7-9.1-17.2-14.9-28.9-14.8c-8.7,0.2-16.7,3.3-22.7,8.7c-4.6-2.9-10-4.4-15.7-4.3
									c-17,0.2-30.6,14.6-30.5,32.2c0,0.2,0,0.2,0,0.3c-8.3,3.3-14.1,11.6-14,21.4c0,4.6,1.4,8.9,3.7,12.4
									C1506.3,393,1499.1,403.5,1499.3,415.7z"/>
								<g>
									<g>
										<g>
											<g>
												<path class="st3" d="M1620.6,328.4c1,1.3,1.9,2.5,2.9,3.8c1,1.3,1.7,2.7,2.5,4c0.5,0.6,0.8,1.4,1.1,2.1
													c0.3,0.6,0.6,1.4,1,2.1c0.3,0.8,0.6,1.4,1,2.2c0.3,0.8,0.5,1.4,0.8,2.2l0.6,2.2c0.2,0.8,0.3,1.4,0.5,2.2l0.2,1.1
													l0.2,1.1c0,0.8,0.2,1.4,0.2,2.2l-0.2,2.2c0,0.8-0.3,1.4-0.3,2.2l-0.2,1.1c-0.2,0.3-0.2,0.6-0.3,1.1
													c-0.2,0.6-0.5,1.4-0.6,2.1v0.2c-0.3,1.1,0.3,2.2,1.4,2.4c0.2,0,0.3,0,0.6,0c0.2,0,0.6,0,1,0l1,0.2
													c0.6,0,1.3,0.2,1.9,0.3c0.6,0.2,1.3,0.3,1.7,0.5c0.3,0.2,0.6,0.2,0.8,0.3c0.3,0.2,0.6,0.3,0.8,0.5
													c0.3,0.2,0.5,0.3,0.8,0.5l0.8,0.6c0.2,0.2,0.5,0.5,0.6,0.6c0.3,0.2,0.5,0.5,0.6,0.8c0.2,0.3,0.3,0.5,0.5,0.8l0.5,1
													c0.2,0.3,0.2,0.6,0.3,1l0.3,1.1c0,0.2,0.2,0.2,0.3,0.2c0,0,0.3-1,0.3-1.3s0.2-0.8,0-1.1l-0.2-1.1c0-0.5-0.2-0.8-0.3-1.1
													c-0.2-0.5-0.2-0.8-0.5-1.1c-0.2-0.3-0.3-0.8-0.6-1.1l-0.8-1.1c-0.3-0.3-0.6-0.6-1-1c-0.3-0.3-0.6-0.5-1-0.8
													s-0.6-0.5-1.1-0.6c-0.8-0.5-1.4-0.8-2.2-1c-0.8-0.3-1.6-0.5-2.4-0.6c-0.5-0.2-0.8-0.2-1.3-0.2c-0.5,0-0.8,0-1.3,0
													l1.9,2.7c0.2-0.8,0.5-1.6,0.6-2.5c0.2-0.5,0.2-0.8,0.3-1.3l0.2-1.3c0-0.8,0.2-1.7,0.2-2.5l-0.2-2.5
													c0-0.8-0.3-1.6-0.3-2.5l-0.2-1.3l-0.3-1.3c-0.2-0.8-0.3-1.6-0.6-2.4l-0.8-2.4c-0.3-0.8-0.6-1.4-1-2.2s-0.8-1.4-1.1-2.2
													s-0.8-1.4-1.3-2.1c-0.5-0.6-0.8-1.4-1.3-2.1c-1-1.3-1.9-2.5-3-3.8c-1-1.3-2.1-2.4-3.3-3.5c0,0-0.2,0-0.3,0
													C1620.4,328.2,1620.4,328.2,1620.6,328.4z"/>
											</g>
										</g>
										<g>
											<g>
												<path class="st3" d="M1626.3,472.7c0,0-0.6-1.7-1-4.4c-0.2-0.6-0.2-1.4-0.2-2.2c0-0.8-0.2-1.6,0-2.4
													c0-1.6,0.2-3.3,0.5-5.1c0.2-0.8,0.5-1.7,0.6-2.5c0.3-0.8,0.6-1.6,0.8-2.4c0.2-0.8,0.5-1.4,0.6-2.2s0.3-1.4,0.5-2.1
													c0.2-0.6,0.3-1.3,0.5-1.7c0.2-0.5,0.3-1,0.3-1.4c0.2-0.8,0.2-1.3,0.2-1.3l0,0c0-0.2,0-0.2-0.2-0.2h-0.2
													c0,0-0.5,0.3-1.1,0.8c-0.3,0.3-0.6,0.6-1.1,1.1c-0.5,0.5-0.8,1-1.3,1.6c-0.3,0.6-1,1.3-1.3,2.1c-0.3,0.8-0.8,1.6-1,2.4
													c-0.2,1-0.5,1.7-0.5,2.7c0,1-0.2,1.9-0.2,2.9s0,1.9,0,2.9c0,1,0.2,1.9,0.3,2.7c0.2,1,0.3,1.7,0.5,2.5
													c0.2,0.8,0.5,1.6,0.6,2.2c1,2.7,1.9,4.3,1.9,4.3c0,0.2,0.2,0.2,0.3,0C1626.3,472.9,1626.3,472.7,1626.3,472.7z"/>
											</g>
										</g>
										<g>
											<g>
												<path class="st3" d="M1632,348.4c1.1-1,2.5-1.4,4-1.6c0.6-0.2,1.4,0,2.1,0c0.3,0,0.6,0.2,1,0.3c0.3,0.2,0.6,0.2,1,0.3
													c0.3,0.2,0.6,0.3,1,0.5l1,0.6c0.3,0.2,0.6,0.5,0.8,0.6l0.8,0.6c0.5,0.5,1,1,1.6,1.6l1.4,1.7c0.3,0.5,1,0.6,1.4,0.3h0.2
													c0.5-0.3,1.1-0.5,1.6-0.6c0.6-0.2,1.1-0.5,1.7-0.6c0.6-0.2,1.1-0.3,1.7-0.5c0.6-0.2,1.1-0.2,1.7-0.3
													c0.6-0.2,1.1-0.2,1.7-0.2s1.1,0,1.7,0s1.1,0.2,1.7,0.2c0.3,0,0.6,0,0.8,0.2c0.3,0,0.5,0.2,0.8,0.2
													c0.5,0.2,1.1,0.2,1.6,0.5c0.5,0.2,1.1,0.3,1.6,0.6l1.6,0.8c0.5,0.3,1,0.6,1.4,1c0.5,0.3,1,0.6,1.4,1
													c0.5,0.3,1,0.8,1.4,1.1c0.5,0.3,1,0.8,1.3,1.3c0.5,0.5,1,1,1.4,1.3l0,0c0.2,0,0.2,0,0.3,0V359c-0.2-0.6-0.5-1.3-0.6-1.9
													c-0.3-0.6-0.5-1.3-0.8-1.7c-0.3-0.6-0.8-1.1-1.1-1.7c-0.3-0.6-0.8-1.1-1.3-1.6s-1-1-1.6-1.4l-1.7-1.3
													c-0.6-0.5-1.3-0.6-1.9-1c-0.6-0.3-1.3-0.5-2.1-0.6c-0.6-0.2-1.4-0.3-2.1-0.3s-1.4-0.2-2.1,0c-0.6,0-1.4,0-2.1,0.2
													c-0.6,0.2-1.4,0.2-2.1,0.3c-0.6,0.2-1.3,0.3-1.9,0.6c-0.6,0.2-1.3,0.5-1.9,0.6c-0.6,0.3-1.3,0.5-1.9,0.8
													c-0.6,0.3-1.1,0.6-1.7,1l1.6,0.3l-1.7-1.7c-0.6-0.5-1.3-1.1-1.9-1.6l-1-0.6c-0.3-0.2-0.6-0.5-1.1-0.6l-1.1-0.5
													c-0.3-0.2-0.8-0.3-1.1-0.5c-0.3-0.2-0.8-0.2-1.3-0.3c-0.5,0-0.8-0.2-1.3-0.2c-0.8,0-1.6,0-2.4,0.2
													c-0.3,0.2-0.8,0.2-1.1,0.3c-0.3,0.2-0.8,0.3-1.1,0.5c-0.6,0.5-1.3,0.8-1.9,1.4c0,0,0,0.2,0,0.3
													C1631.9,348.5,1632,348.5,1632,348.4L1632,348.4z"/>
											</g>
										</g>
										<g>
											<g>
												<path class="st3" d="M1721.8,356c-0.8-0.5-1.6-1-2.5-1.3c-0.5-0.2-1-0.3-1.3-0.5c-0.5-0.2-1-0.3-1.4-0.3
													c-0.5-0.2-1-0.2-1.4-0.2c-0.5,0-1,0-1.4,0s-1,0.2-1.4,0.2c-0.5,0-1,0.2-1.4,0.3c-0.3,0-0.5,0.2-0.8,0.2l-0.6,0.3
													c-0.5,0.3-1,0.5-1.4,0.8l-1.3,1l-1.1,1.1c-0.3,0.3-0.6,0.8-1,1.1l-1,1.3c-0.5,0.8-1,1.7-1.4,2.7l3.2-0.8
													c-0.3-0.3-0.5-0.3-0.8-0.5c-0.2-0.2-0.5-0.3-0.8-0.3c-0.5-0.2-1.1-0.5-1.6-0.5c-0.6-0.2-1.3-0.2-1.9,0
													c-0.3,0-0.6,0.2-1,0.2c-0.3,0.2-0.6,0.3-0.8,0.5c-0.3,0.2-0.5,0.3-0.8,0.6c-0.3,0.2-0.3,0.5-0.6,0.6
													c-0.2,0.2-0.3,0.5-0.5,0.6l-0.3,0.6c-0.2,0.5-0.3,1-0.3,1.4c0,0.5,0,1,0,1.4c0,0.2,0.2,0.2,0.2,0.2h0.2l0,0
													c0.3-0.3,0.6-0.6,0.8-1c0.3-0.3,0.6-0.6,0.8-0.8c0.3-0.2,0.6-0.5,0.8-0.6c0.2,0,0.3-0.2,0.5-0.2c0.2,0,0.3-0.2,0.3-0.2
													c0.2,0,0.2,0,0.3,0c0.2,0,0.2,0,0.3,0c0.2,0,0.5,0.2,0.6,0.2c0.3,0.2,0.5,0.2,0.8,0.5l0.3,0.3c0.2,0,0.3,0.2,0.3,0.2
													l0,0c1,0.6,2.2,0.5,2.9-0.3c0.2-0.2,0.2-0.3,0.3-0.5c0.2-0.3,0.3-0.8,0.5-1.1c0.2-0.3,0.3-0.8,0.5-1.3l0.5-1.1l0.3-0.6
													c0.2-0.2,0.2-0.3,0.3-0.5l0.6-1l0.8-0.8c0.3-0.3,0.6-0.5,1-0.8l0.5-0.3c0.2-0.2,0.3-0.2,0.5-0.3
													c0.3-0.2,0.8-0.3,1.1-0.5c0.5-0.2,0.8-0.3,1.3-0.3c0.5,0,0.8-0.2,1.3-0.2c0.5,0,0.8,0,1.3,0s1,0,1.3,0.2
													c0.5,0,1,0.2,1.3,0.2c1,0.2,1.7,0.5,2.5,0.8c0.2,0,0.2,0,0.3-0.2C1721.9,356.2,1721.9,356,1721.8,356z"/>
											</g>
										</g>
										<g>
											<g>
												<path class="st3" d="M1686.2,475.1c0,0,0.5-0.2,1.1-0.3c0.6-0.2,1.7-0.6,2.9-1.3c0.6-0.3,1.1-0.6,1.7-1s1.3-0.8,1.9-1.3
													c0.6-0.5,1.3-1,1.9-1.6c0.6-0.6,1.3-1.3,1.7-1.9c0.6-0.6,1.1-1.3,1.7-2.1c0.6-0.6,1-1.4,1.4-2.2
													c0.5-0.8,0.6-1.6,0.8-2.2c0.2-0.8,0.3-1.4,0.3-2.2c0-0.6,0-1.3,0-1.7s-0.2-1-0.2-1.4c-0.2-0.8-0.3-1.3-0.3-1.3
													c0-0.2-0.2-0.2-0.3-0.2c0,0,0,0-0.2,0l0,0c0,0-0.3,0.3-0.6,1.1c-0.2,0.3-0.3,0.8-0.6,1.1c-0.2,0.5-0.5,1-0.8,1.4
													c-0.3,0.5-0.5,1.1-0.8,1.7c-0.3,0.6-0.5,1.3-1,1.9c-0.3,0.6-0.5,1.4-0.8,2.1c-0.3,0.6-0.6,1.4-1.1,2.1
													c-0.5,0.6-0.8,1.3-1.3,1.9c-0.5,0.6-1,1.1-1.4,1.7c-0.5,0.5-1,1.1-1.6,1.6c-0.5,0.5-1,1-1.4,1.3c-1,0.8-1.7,1.3-2.4,1.7
													c-0.6,0.3-1,0.6-1,0.6c-0.2,0-0.2,0.2-0.2,0.3C1686,475.1,1686.2,475.1,1686.2,475.1L1686.2,475.1z"/>
											</g>
										</g>
										<g>
											<g>
												<path class="st3" d="M1734.5,445.7c-0.3-1.9-1-3.7-1.9-5.4c-0.2-0.5-0.5-0.8-0.8-1.3s-0.5-0.8-0.8-1.3s-0.6-0.8-1-1.1
													s-0.6-0.8-1-1.1s-0.6-0.8-1.1-1l-1.3-1l-1.3-0.8c-0.5-0.3-1-0.5-1.4-0.6c-0.5-0.2-1-0.5-1.4-0.5l-1.4-0.3
													c-0.5-0.2-1-0.2-1.6-0.3l-1.6-0.2l1.6,1.3c-0.2-0.5-0.2-1-0.3-1.4c-0.2-0.5-0.3-1-0.5-1.3c-0.2-0.5-0.3-1-0.5-1.3
													c-0.2-0.5-0.5-0.8-0.6-1.3c-0.2-0.5-0.5-0.8-0.8-1.3s-0.6-0.8-1-1.1s-0.6-0.6-1.1-1l-0.6-0.5c-0.2-0.2-0.5-0.3-0.6-0.3
													c-0.5-0.3-0.8-0.5-1.3-0.6c-0.5-0.2-1-0.3-1.4-0.5l-1.4-0.3c-0.5-0.2-1,0-1.4,0c-0.5,0-1,0-1.4,0.2s-1,0.2-1.4,0.3
													c-0.5,0.2-0.8,0.3-1.3,0.5c-0.5,0.2-0.8,0.3-1.3,0.6c-0.2,0-0.2,0.2-0.2,0.3l0.2,0.2l0,0c0.5,0,0.8,0.2,1.3,0.2
													s0.8,0,1.3,0.2l1.1,0.2c0.3,0,0.8,0.2,1.1,0.3c0.3,0.2,0.8,0.2,1.1,0.3l1,0.5c0.3,0.2,0.6,0.5,1,0.6
													c0.3,0.2,0.6,0.5,0.8,0.6c0.3,0.2,0.5,0.5,0.8,0.8c0.3,0.3,0.5,0.5,0.8,0.8c0.2,0.3,0.5,0.5,0.6,0.8s0.5,0.6,0.6,1
													c0.5,0.6,0.8,1.3,1.1,1.9c0.2,0.3,0.3,0.6,0.5,1.1c0.2,0.3,0.3,0.8,0.3,1v0.2c0.2,0.6,0.8,1.1,1.4,1.1h1.3
													c0.5,0,1,0,1.3,0.2l1.3,0.2c0.5,0,0.8,0.2,1.3,0.3c0.5,0.2,0.8,0.2,1.3,0.5l1.3,0.5l1.1,0.6c0.3,0.2,0.8,0.5,1.1,0.8
													s0.8,0.5,1.1,0.8s0.6,0.6,1,1s0.6,0.6,1,1c0.3,0.3,0.6,0.8,0.8,1.1c1.1,1.6,1.9,3.2,2.5,4.9l0,0c0,0.2,0.2,0.2,0.3,0.2
													C1734.5,445.9,1734.6,445.7,1734.5,445.7z"/>
											</g>
										</g>
										<g>
											<g>
												<path class="st3" d="M1711.9,423.3c0,0,0.3-0.8,0.6-2.1c0.2-0.6,0.3-1.4,0.3-2.2c0-0.5,0-0.8,0-1.3c0-0.5-0.2-1-0.2-1.3
													c-0.2-0.5-0.2-1-0.3-1.4c-0.2-0.5-0.2-1-0.5-1.3c-0.2-0.3-0.5-0.8-0.8-1c-0.3-0.3-0.6-0.5-1-0.6c-0.3-0.2-0.6-0.3-1-0.3
													c-0.3,0-0.6-0.2-0.8-0.2c-0.5,0-0.8,0-0.8,0c-0.2,0-0.3,0.2-0.2,0.3l0,0c0,0,0,0.3,0.2,0.8c0,0.2,0.2,0.5,0.2,0.6
													c0,0.3,0.2,0.5,0.2,0.8c0.2,0.5,0.3,1.1,0.6,1.6c0.3,0.5,1,1,1.3,1.6c0.3,0.6,0.6,1.3,1,1.9c0.2,0.6,0.5,1.3,0.6,1.9
													c0.3,1.1,0.3,1.9,0.3,1.9C1711.6,423.3,1711.6,423.5,1711.9,423.3C1711.8,423.5,1711.9,423.3,1711.9,423.3z"/>
											</g>
										</g>
										<g>
											<g>
												<path class="st3" d="M1525.8,355.4c0.8-0.3,1.7-0.6,2.5-0.8c0.5-0.2,1-0.2,1.3-0.3c0.5-0.2,1,0,1.3-0.2
													c0.5,0,0.8,0,1.3,0c0.5,0,0.8,0.2,1.3,0.2c0.5,0,0.8,0.2,1.3,0.3c0.5,0.2,0.8,0.3,1.1,0.5c0.2,0.2,0.3,0.2,0.5,0.3
													l0.5,0.3c0.3,0.2,0.6,0.5,1,0.6l0.8,0.8l0.8,1c0.2,0.2,0.3,0.3,0.3,0.5l0.3,0.6l0.5,1.1c0.2,0.3,0.3,0.8,0.5,1.1
													c0.2,0.3,0.3,0.8,0.5,1.1c0.5,1.1,1.6,1.6,2.7,1.1c0.2,0,0.3-0.2,0.5-0.3l0,0c0,0,0.2-0.2,0.3-0.2l0.3-0.3
													c0.3-0.2,0.5-0.3,0.8-0.5s0.5-0.2,0.6-0.2c0.2,0,0.2,0,0.3,0c0.2,0,0.2,0,0.3,0c0.2,0,0.2,0,0.3,0.2
													c0.2,0,0.3,0.2,0.5,0.2c0.3,0.2,0.5,0.3,0.8,0.6c0.3,0.3,0.6,0.5,0.8,0.8c0.3,0.3,0.5,0.6,0.8,1l0,0
													c0,0.2,0.2,0.2,0.3,0v-0.2c0-0.5,0-1,0-1.4c0-0.5-0.2-1-0.3-1.4l-0.3-0.6c-0.2-0.3-0.3-0.5-0.5-0.6
													c-0.2-0.2-0.3-0.5-0.6-0.6c-0.2-0.2-0.5-0.3-0.8-0.5c-0.3-0.2-0.6-0.3-0.8-0.5c-0.3-0.2-0.6-0.2-1-0.2
													c-0.6,0-1.3,0-1.9,0.2c-0.6,0.2-1.1,0.3-1.6,0.6c-0.3,0.2-0.5,0.3-0.8,0.5c-0.3,0.2-0.5,0.3-0.8,0.5l3.2,0.8
													c-0.5-1-1-1.7-1.4-2.7l-1-1.3c-0.3-0.5-0.6-0.8-1-1.1l-1.1-1.1l-1.3-1c-0.5-0.3-1-0.5-1.4-0.8l-0.6-0.3
													c-0.3-0.2-0.5-0.2-0.8-0.2c-0.5-0.2-1-0.3-1.4-0.3s-1-0.2-1.4-0.2c-0.5,0-1,0-1.4,0.2c-0.5,0.2-1,0.2-1.4,0.3
													c-0.5,0.2-1,0.2-1.4,0.3c-0.5,0.2-1,0.3-1.3,0.5c-1,0.3-1.7,0.8-2.5,1.4c-0.2,0-0.2,0.2,0,0.3
													C1525.6,355.4,1525.8,355.4,1525.8,355.4z"/>
											</g>
										</g>
										<g>
											<g>
												<path class="st3" d="M1563.6,473c0,0-0.3-0.2-1-0.6c-0.6-0.3-1.4-1-2.4-1.7c-0.5-0.3-1-0.8-1.4-1.3s-1-1-1.6-1.4
													c-0.5-0.6-1.1-1.1-1.4-1.7c-0.5-0.6-1-1.3-1.4-1.9c-0.5-0.6-0.8-1.3-1.1-2.1c-0.3-0.6-0.6-1.4-1-2.1s-0.6-1.3-1-1.7
													c-0.3-0.6-0.6-1.1-1-1.6s-0.6-1-0.8-1.4c-0.2-0.5-0.5-0.8-0.6-1.1c-0.3-0.6-0.6-1.1-0.6-1.1l0,0c0-0.2-0.2-0.2-0.3,0
													c0,0,0,0,0,0.2c0,0-0.2,0.5-0.3,1.3c0,0.3-0.2,0.8-0.2,1.4c0,0.5,0,1.1,0,1.7c0,0.6,0.2,1.4,0.3,2.1
													c0.2,0.8,0.5,1.6,0.8,2.2c0.5,0.8,0.8,1.4,1.4,2.2c0.6,0.6,1.1,1.4,1.7,2.1c0.6,0.6,1.3,1.3,1.9,1.9
													c0.6,0.6,1.3,1.1,1.9,1.6c0.6,0.5,1.3,1,1.9,1.3c0.6,0.3,1.3,0.6,1.9,1c1.1,0.5,2.1,1,2.9,1.1c0.6,0.2,1.1,0.3,1.1,0.3
													l0,0c0.2,0,0.2,0,0.2-0.2C1563.8,473.2,1563.6,473.2,1563.6,473z"/>
											</g>
										</g>
										<g>
											<g>
												<path class="st3" d="M1515,445.1c0.6-1.7,1.4-3.5,2.5-4.9c0.3-0.3,0.5-0.8,0.8-1.1s0.6-0.6,1-1.1c0.3-0.3,0.6-0.6,1-1
													c0.3-0.3,0.6-0.6,1-0.8c0.3-0.3,0.6-0.6,1.1-0.8l1.1-0.6l1.3-0.5c0.3-0.2,0.8-0.3,1.3-0.5c0.5-0.2,0.8-0.3,1.3-0.3
													l1.3-0.2c0.5-0.2,0.8-0.2,1.3-0.2h1.3c0.6,0,1.3-0.5,1.4-1.1v-0.2c0.2-0.3,0.2-0.6,0.3-1c0.2-0.3,0.3-0.6,0.5-1.1
													c0.3-0.6,0.8-1.3,1.1-1.9c0.2-0.3,0.5-0.6,0.6-1c0.2-0.3,0.5-0.6,0.6-0.8c0.2-0.3,0.5-0.5,0.6-0.8
													c0.2-0.3,0.5-0.5,0.8-0.8c0.3-0.2,0.5-0.5,0.8-0.6c0.3-0.2,0.6-0.3,1-0.6l1-0.5c0.3-0.2,0.6-0.3,1.1-0.3
													c0.3-0.2,0.8-0.3,1.1-0.3l1.1-0.3c0.5-0.2,0.8-0.2,1.3-0.2s0.8-0.2,1.3-0.2l0,0c0.2,0,0.2-0.2,0.2-0.2s0-0.2-0.2-0.2
													c-0.3-0.2-0.8-0.3-1.3-0.5c-0.5-0.2-0.8-0.3-1.3-0.5c-0.5-0.2-1-0.2-1.4-0.3c-0.5-0.2-1,0-1.4,0c-0.5,0-1,0-1.4,0.2
													l-1.4,0.3c-0.5,0.2-1,0.3-1.4,0.5c-0.5,0.2-0.8,0.5-1.3,0.8c-0.2,0.2-0.5,0.3-0.6,0.5l-0.6,0.5
													c-0.3,0.3-0.8,0.6-1.1,1.1c-0.3,0.3-0.6,0.8-1,1.1c-0.3,0.5-0.5,0.8-0.8,1.3c-0.2,0.5-0.5,0.8-0.6,1.3s-0.3,1-0.5,1.3
													c-0.2,0.5-0.3,1-0.3,1.3c-0.2,0.5-0.2,1-0.3,1.4l1.6-1.3l-1.6,0.2c-0.5,0.2-1,0.2-1.4,0.3l-1.4,0.5
													c-0.5,0.2-1,0.3-1.4,0.6c-0.5,0.2-1,0.3-1.4,0.6l-1.3,0.8l-1.3,1c-0.5,0.3-0.8,0.6-1.1,1c-0.3,0.3-0.6,0.6-1,1.1
													c-0.3,0.3-0.6,0.8-1,1.1c-0.3,0.5-0.6,0.8-0.8,1.3c-0.2,0.5-0.5,0.8-0.6,1.3c-0.8,1.7-1.4,3.7-1.7,5.6
													c0,0.2,0,0.2,0.2,0.2C1514.8,445.3,1515,445.3,1515,445.1L1515,445.1z"/>
											</g>
										</g>
										<g>
											<g>
												<path class="st3" d="M1537.2,422.2c0,0,0.2-0.8,0.3-1.9c0.2-0.6,0.3-1.3,0.6-1.9c0.3-0.6,0.5-1.4,0.8-1.9
													c0.3-0.6,1-1.1,1.3-1.6c0.3-0.5,0.5-1.1,0.6-1.6c0-0.3,0.2-0.6,0.2-0.8c0-0.3,0.2-0.5,0.2-0.6c0-0.5,0.2-0.8,0.2-0.8
													l0,0c0-0.2-0.2-0.3-0.2-0.3s-0.3,0-0.8,0c-0.2,0-0.5,0-0.8,0.2c-0.3,0.2-0.6,0.2-1,0.5c-0.3,0.2-0.6,0.5-1,0.6
													c-0.3,0.3-0.6,0.6-0.8,1c-0.2,0.3-0.3,0.8-0.5,1.3c-0.2,0.5-0.2,1-0.2,1.4c-0.2,0.5-0.2,1-0.2,1.3c0,0.5,0,0.8,0,1.3
													c0,0.8,0.2,1.6,0.3,2.2c0.3,1.3,0.6,2.1,0.6,2.1c0,0.2,0.2,0.2,0.3,0.2C1537.1,422.2,1537.2,422.2,1537.2,422.2z"/>
											</g>
										</g>
										<g>
											<g>
												<path class="st3" d="M1566.6,323.9c1.1,0.5,2.2,1.1,3.2,1.9c1.1,0.6,2.1,1.4,3,2.2c0.5,0.5,1,0.8,1.4,1.3l1.3,1.4
													l1.1,1.4c0.3,0.5,0.6,1,1.1,1.4c0.3,0.5,0.6,1,1,1.6c0.3,0.5,0.6,1.1,0.8,1.6l0.8,1.7c0.3,0.5,0.3,1.1,0.6,1.7
													c0.2,0.6,0.5,1.1,0.5,1.7l0.3,1.7c0.2,0.6,0.2,1.3,0.3,1.7l0.2,1.7c0.2,0.8,0.6,1.3,1.3,1.4h0.2c0.5,0,1,0.2,1.4,0.3
													c0.5,0.2,1,0.3,1.6,0.5c0.5,0.2,1,0.3,1.4,0.5s1,0.3,1.4,0.6c0.5,0.2,1,0.5,1.4,0.6c0.5,0.2,1,0.5,1.3,0.8
													c0.5,0.3,1,0.5,1.3,0.8c0.3,0.3,0.8,0.5,1.3,0.8l1.1,1c0.3,0.3,0.6,0.8,1,1.1s0.6,0.8,1,1.3c0.2,0.2,0.3,0.5,0.5,0.6
													c0.2,0.2,0.2,0.5,0.3,0.6c0.2,0.5,0.5,1,0.6,1.4l0.5,1.6c0.2,0.5,0.3,1.1,0.3,1.6c0.2,0.5,0.2,1.1,0.3,1.6l0,0
													c0,0.2,0.2,0.2,0.2,0.2s0.2,0,0.2-0.2c0.2-0.6,0.3-1.1,0.3-1.7c0.2-0.6,0.2-1.1,0.2-1.7s0-1.3,0-1.7
													c0-0.6-0.2-1.3-0.3-1.7c0-0.3-0.2-0.6-0.2-1l-0.3-0.8c-0.3-0.5-0.5-1.1-0.8-1.7c-0.3-0.5-0.6-1.1-1.1-1.6l-1.3-1.4
													c-0.5-0.5-1-0.8-1.4-1.3c-0.5-0.5-1-0.8-1.6-1.1c-0.5-0.3-1.1-0.6-1.6-1c-0.5-0.3-1.1-0.5-1.7-0.6
													c-1.1-0.5-2.2-0.8-3.5-1c-0.6-0.2-1.1-0.2-1.7-0.3c-0.6-0.2-1.1-0.2-1.9-0.2l1.4,1.4l-0.3-1.9c-0.2-0.6-0.2-1.3-0.5-1.9
													l-0.6-1.9c-0.2-0.6-0.5-1.3-0.6-1.9c-0.3-0.6-0.5-1.3-0.8-1.7l-1-1.7c-0.3-0.6-0.8-1.1-1.1-1.7
													c-0.3-0.5-0.8-1.1-1.1-1.6c-0.5-0.5-0.8-1.1-1.3-1.4l-1.4-1.4l-1.4-1.3c-0.5-0.5-1.1-0.8-1.6-1.1
													c-1.1-0.8-2.2-1.4-3.3-2.1c-1.1-0.6-2.4-1.1-3.5-1.6c-0.2,0-0.2,0-0.3,0.2C1566.6,323.8,1566.6,323.9,1566.6,323.9z"/>
											</g>
										</g>
										<g>
											<g>
												<path class="st3" d="M1664.6,323.1c2.1,1,4.1,2.1,5.9,3.5c1,0.6,1.7,1.4,2.5,2.2c0.5,0.3,0.8,0.8,1.1,1.3
													s0.8,0.8,1.1,1.3s0.8,0.8,1,1.3l1,1.4c0.3,0.5,0.5,1,0.8,1.4s0.5,1,0.6,1.4c0.2,0.5,0.5,1,0.6,1.6l0.5,1.6
													c0.3,1.1,0.3,2.2,0.5,3.2c0.2,0.8,0.6,1.3,1.4,1.4l0,0c0.5,0,1,0.2,1.4,0.3c0.5,0.2,1,0.2,1.4,0.3
													c0.5,0.2,1,0.3,1.4,0.5c0.5,0.2,1,0.3,1.4,0.5c0.5,0.2,1,0.3,1.3,0.5c0.5,0.2,1,0.3,1.3,0.6c0.5,0.2,0.8,0.5,1.3,0.6
													c0.5,0.2,0.8,0.5,1.3,0.6c0.5,0.2,0.8,0.5,1.1,0.8s0.8,0.6,1.1,0.8c0.3,0.3,0.6,0.6,1,1s0.6,0.6,0.8,1.1
													c0.2,0.5,0.5,0.8,0.6,1.3c0.2,0.5,0.3,1,0.5,1.3l0.3,0.6l0.2,0.8c0.2,0.5,0.2,1,0.3,1.6l0,0c0,0.2,0.2,0.2,0.2,0.2
													s0.2,0,0.2-0.2c0.2-0.5,0.3-1.1,0.3-1.6c0-0.3,0.2-0.5,0.2-0.8v-0.8c0-0.6,0-1.1-0.2-1.7c-0.2-0.6-0.3-1.1-0.5-1.7
													c-0.2-0.6-0.5-1.1-0.8-1.6s-0.6-1-1-1.4l-0.5-0.6c-0.2-0.2-0.5-0.5-0.6-0.6c-0.5-0.3-0.8-0.8-1.3-1.1s-1-0.6-1.4-1
													c-0.5-0.3-1-0.6-1.4-0.8c-0.5-0.3-1.1-0.5-1.6-0.6c-0.5-0.2-1.1-0.3-1.6-0.5c-1.1-0.3-2.2-0.5-3.2-0.6
													c-0.5-0.2-1.1-0.2-1.6-0.2c-0.6,0-1.1-0.2-1.7-0.2l1.4,1.4l-0.5-1.7c-0.2-0.6-0.3-1.3-0.5-1.7l-0.6-1.7
													c-0.2-0.6-0.5-1.1-0.8-1.6c-0.3-0.5-0.5-1.1-1-1.6c-0.3-0.5-0.6-1.1-1-1.6l-1.1-1.4c-0.3-0.5-0.8-1-1.3-1.3
													c-0.5-0.5-0.8-0.8-1.3-1.3c-0.5-0.3-1-0.8-1.4-1.1c-1-0.8-1.9-1.4-3-2.1c-1-0.6-2.1-1.1-3.2-1.6
													c-1.1-0.5-2.2-0.8-3.3-1.1c-0.2,0-0.2,0-0.2,0.2C1664.4,323,1664.4,323,1664.6,323.1L1664.6,323.1z"/>
											</g>
										</g>
										<g>
											<g>
												<path class="st3" d="M1677.1,493.2c-1.1-0.8-1.9-1.9-2.9-2.9c-1-1.1-1.7-2.1-2.5-3.3c-0.8-1.1-1.4-2.2-2.1-3.5
													c-0.3-0.6-0.6-1.1-1-1.7c-0.3-0.6-0.6-1.3-1-1.7l-1-1.9l-0.8-1.9c-0.6-1.3-1-2.5-1.4-3.8c-0.3-0.6-0.5-1.3-0.6-1.9
													l-0.6-1.9l-1-4c-0.3-1-1.3-1.6-2.2-1.3l-0.5,0.2c-0.2,0-0.5,0.2-0.8,0.2c-0.3,0-0.6,0.2-1,0.2c-0.3,0-0.6,0.2-1,0.2
													c-0.3,0-0.6,0-1,0c-0.3,0-0.6,0-1,0c-0.3,0-0.6,0-1-0.2c-0.3,0-0.6-0.2-1-0.3c-0.3-0.2-0.6-0.2-1-0.3l-1-0.5
													c-0.3-0.2-0.6-0.3-1-0.5s-0.6-0.3-1-0.5s-0.6-0.5-1-0.6c-0.3-0.2-0.6-0.5-1-0.6l-1-0.6c-0.5-0.5-1.1-1.1-1.7-1.6l0,0
													c-0.2,0-0.2,0-0.3,0v0.2c0.3,0.8,0.6,1.4,1,2.2l0.6,1.1c0.2,0.3,0.5,0.8,0.6,1.1c0.5,0.6,1.1,1.3,1.7,1.9
													c0.3,0.3,0.6,0.6,1,0.8l1.1,0.8c0.8,0.5,1.6,0.8,2.4,1.1c0.5,0.2,0.8,0.3,1.3,0.3c0.5,0.2,1,0.2,1.4,0.2s1,0,1.4,0
													c0.5,0,1,0,1.4-0.2c0.5-0.2,1-0.2,1.4-0.3c0.5-0.2,0.8-0.3,1.4-0.5l-2.7-1.3l1.6,4l0.8,1.9c0.3,0.6,0.5,1.3,0.8,1.9
													c0.6,1.3,1.1,2.5,1.9,3.8l1,1.9l1.1,1.7c0.3,0.6,0.8,1.3,1.1,1.7c0.3,0.6,0.8,1.1,1.1,1.7c0.8,1.1,1.7,2.2,2.5,3.3
													c1.9,2.1,3.8,4.1,6.2,5.7c0.2,0,0.2,0,0.3,0C1677.3,493.4,1677.3,493.2,1677.1,493.2L1677.1,493.2z"/>
											</g>
										</g>
										<g>
											<g>
												<path class="st3" d="M1571.4,492.7c2.5-1.3,4.8-3,6.8-4.8c1-1,2.1-1.9,3-3c0.5-0.5,1-1.1,1.4-1.6c0.5-0.5,1-1.1,1.3-1.6
													l1.3-1.7l1.3-1.7c0.8-1.1,1.6-2.4,2.4-3.5c0.3-0.6,0.6-1.3,1.1-1.7l1.1-1.7l2.1-3.7l-2.7,0.8c0.5,0.3,1,0.5,1.4,0.6
													c0.5,0.2,0.8,0.3,1.3,0.5c0.5,0.2,1,0.2,1.3,0.3c0.5,0,1,0.2,1.4,0.2c1,0,1.9,0,2.7-0.3c0.5-0.2,1-0.2,1.3-0.3
													c0.5-0.2,0.8-0.3,1.3-0.5l1.1-0.6c0.3-0.2,0.8-0.5,1.1-0.8c0.8-0.5,1.3-1.1,1.9-1.6c0.3-0.3,0.5-0.6,0.8-1l0.8-1
													c0.5-0.6,0.8-1.4,1.3-2.1c0-0.2,0-0.2-0.2-0.3h-0.2l0,0c-0.6,0.5-1.3,1-1.9,1.3l-1,0.6c-0.3,0.2-0.6,0.5-1,0.6
													c-0.3,0.2-0.6,0.3-1,0.5c-0.3,0.2-0.6,0.3-1,0.5c-0.3,0.2-0.6,0.3-1,0.3l-1,0.3c-0.3,0.2-0.6,0.2-1,0.2
													c-0.3,0.2-0.6,0.2-1,0.2c-0.3,0-0.6,0-1,0s-0.6,0-1,0s-0.6-0.2-1-0.2s-0.6-0.2-1-0.2c-0.3-0.2-0.6-0.2-1-0.3
													c-0.3-0.2-0.6-0.3-0.8-0.3l-0.5-0.2c-1-0.3-1.9,0.2-2.4,1.1l-1.4,3.8l-0.8,1.9c-0.3,0.6-0.5,1.3-0.8,1.9
													c-0.6,1.3-1.3,2.4-1.9,3.7l-1,1.7l-1.1,1.7c-0.3,0.6-0.8,1.1-1.1,1.7c-0.3,0.5-0.8,1.1-1.1,1.6
													c-0.8,1.1-1.6,2.2-2.5,3.2c-1,1-1.9,2.1-2.9,2.9c-1,1-2.1,1.7-3.2,2.5l0,0c-0.2,0-0.2,0.2,0,0.3
													C1571.2,492.7,1571.4,492.7,1571.4,492.7z"/>
											</g>
										</g>
										<g>
											<g>
												<path class="st3" d="M1731.6,389c0,0-1.4-0.6-4-1.1c-0.6-0.2-1.3-0.3-1.9-0.3c-0.6-0.2-1.4-0.2-2.2-0.2
													c-0.8,0-1.6,0-2.4,0c-0.8,0.2-1.7,0.2-2.5,0.5c-0.8,0.2-1.7,0.3-2.5,0.6c-0.5,0.2-0.8,0.3-1.3,0.5
													c-0.3,0.2-0.8,0.5-1.1,0.6c-0.8,0.5-1.3,1-1.9,1.6c-0.3,0.3-0.5,0.6-0.8,0.8c-0.2,0.3-0.3,0.6-0.5,1
													c-0.3,0.6-0.6,1.1-0.8,1.6c-0.2,0.5-0.3,1-0.3,1.3c-0.2,0.8-0.2,1.1-0.2,1.1c0,0.2,0.2,0.2,0.2,0.2s0,0,0.2,0l0,0
													c0,0,0.5-0.2,1-0.6c0.3-0.2,0.6-0.5,1-0.8s0.8-0.5,1.3-1c0.2-0.2,0.5-0.3,0.6-0.5c0.3-0.2,0.5-0.3,0.8-0.5
													c0.3-0.2,0.5-0.3,0.8-0.5s0.5-0.3,0.8-0.5s0.5-0.3,0.8-0.6c0.3-0.2,0.6-0.3,0.8-0.6c0.6-0.5,1.3-0.8,1.9-1
													c0.6-0.3,1.4-0.5,2.1-0.8c0.8-0.2,1.4-0.3,2.1-0.5c1.4-0.3,2.7-0.3,4-0.5c2.4,0,4,0.2,4,0.2c0.2,0,0.2,0,0.2-0.2
													C1731.8,389.2,1731.8,389,1731.6,389z"/>
											</g>
										</g>
										<g>
											<g>
												<path class="st3" d="M1514.4,389.8c0,0,1.6-0.5,3.8-0.8c1.1-0.2,2.5-0.3,4-0.3c0.6,0,1.4,0,2.2,0.2
													c0.8,0.2,1.4,0.2,2.2,0.3c0.6,0.2,1.4,0.3,2.1,0.6c0.3,0.2,0.6,0.3,1,0.5c0.3,0.2,0.6,0.3,1,0.5c0.3,0.2,0.6,0.2,1,0.3
													c0.3,0.2,0.6,0.3,0.8,0.3c0.3,0.2,0.6,0.2,0.8,0.3c0.3,0.2,0.5,0.3,0.8,0.3c0.5,0.3,1,0.5,1.4,0.6
													c0.5,0.2,0.8,0.5,1.1,0.6c0.6,0.3,1.1,0.5,1.1,0.5l0,0c0.2,0,0.2,0,0.3-0.2c0,0,0,0,0-0.2c0,0-0.2-0.5-0.3-1.1
													c-0.2-0.3-0.3-0.8-0.6-1.3c-0.3-0.5-0.6-1-1.1-1.4c-0.2-0.3-0.5-0.5-0.6-0.8c-0.3-0.2-0.6-0.5-1-0.6
													c-0.6-0.5-1.3-1-2.1-1.3c-0.3-0.2-0.8-0.3-1.3-0.5c-0.5-0.2-0.8-0.2-1.3-0.2c-0.8-0.2-1.7-0.2-2.5-0.3
													c-0.8-0.2-1.7,0-2.5,0c-0.8,0.2-1.6,0.2-2.4,0.3c-0.8,0.2-1.4,0.3-2.2,0.5c-0.6,0.2-1.3,0.5-1.9,0.6
													c-2.2,1-3.7,1.7-3.7,1.7c-0.2,0-0.2,0.2,0,0.3C1514.2,389.8,1514.4,389.8,1514.4,389.8z"/>
											</g>
										</g>
									</g>
								</g>
								<g>
									<g>
										<path class="st1" d="M1712.1,467.8c0,0-0.2,0.2-0.3,0.3c-0.2,0.2-0.5,0.6-0.6,1c-0.3,0.5-0.6,1-1,1.6
											c-0.3,0.6-0.8,1.3-1.1,1.9c-0.2,0.3-0.5,0.8-0.6,1.1s-0.5,0.8-0.6,1.3c-0.3,1-0.6,1.9-1,2.9s-0.8,2.1-1.6,2.9
											c-0.8,0.8-1.6,1.6-2.5,2.1c-0.5,0.3-1,0.6-1.4,0.8c-0.5,0.3-1,0.5-1.4,0.8c-1,0.6-1.9,1-2.7,1.4c-0.8,0.5-1.7,0.8-2.5,1.3
											c-0.8,0.5-1.6,0.8-2.4,1.1c-0.8,0.3-1.4,0.8-2.1,1.1s-1.1,0.5-1.6,0.8c-1,0.5-1.4,0.8-1.4,0.8v0.3c0,0,0.6,0.2,1.6,0.3
											c0.5,0,1.1,0.2,1.9,0.2c0.8,0,1.6-0.2,2.5-0.2c0.5-0.2,1-0.2,1.4-0.3c0.5,0,1-0.3,1.4-0.5c1-0.5,2.1-0.8,3-1.4
											s1.9-1.3,2.9-2.2c0.5-0.5,0.8-0.8,1.3-1.3c0.3-0.5,0.6-1,1.1-1.6c0.6-1,1.3-2.1,2.1-2.9c0.3-0.5,0.6-1,1.1-1.3
											c0.3-0.5,0.8-0.8,1.3-1.3c0.8-0.8,1.7-1.6,2.2-2.5c0.6-1,1-1.7,1.1-2.7c0.3-0.8,0.5-1.7,0.5-2.4c0-0.8,0.2-1.4,0.2-1.9
											s0-1-0.2-1.3c0-0.3-0.2-0.5-0.2-0.5L1712.1,467.8z"/>
									</g>
								</g>
								<g>
									<g>
										<path class="st1" d="M1559.9,328.5c0,0-0.2,0-0.3-0.2c-0.2-0.2-0.5-0.3-1-0.5c-0.5-0.2-1-0.3-1.6-0.3s-1.3-0.2-1.9,0
											c-0.8,0-1.4,0.2-2.2,0.5c-0.8,0.3-1.4,1-2.2,1.4c-0.6,0.6-1.4,1.1-2.2,1.6c-0.8,0.5-1.6,0.8-2.5,1.1s-1.7,0.8-2.5,1.3
											c-0.8,0.5-1.4,1.3-2.1,1.9c-0.6,0.6-1.1,1.4-1.6,2.1c-0.5,0.6-0.6,1.4-1,2.2c-0.2,0.6-0.5,1.3-0.5,1.9
											c-0.2,0.6-0.2,1.1-0.2,1.6c0,0.8,0,1.4,0,1.4l0.3,0.2c0,0,0.5-0.3,1-1c0.3-0.3,0.6-0.6,1-1.1s0.8-0.8,1.3-1.3
											c0.5-0.5,0.8-1.1,1.3-1.6c0.5-0.5,0.8-1.1,1.3-1.7c0.5-0.6,0.8-1.3,1.4-1.9c0.3-0.3,0.5-0.6,0.8-1
											c0.2-0.3,0.5-0.8,0.8-1.1c0.3-0.3,0.5-0.6,0.8-1s0.6-0.5,1.1-0.8c0.6-0.5,1.6-0.6,2.4-0.6c0.8,0,1.6,0,2.4-0.2
											c0.6-0.2,1.3-0.3,1.9-0.5c1.1-0.5,2.2-1,2.9-1.3c0.3-0.2,0.6-0.3,0.8-0.5c0.2-0.2,0.3-0.2,0.3-0.2L1559.9,328.5z"/>
									</g>
								</g>
							</g>
							<path class="st3" d="M1489.6,466.2c0.8-2.9-2.7-6.5-8.1-8.1c-5.2-1.6-10.3-0.5-11.1,2.5c-0.8,2.9,2.7,6.5,8.1,8.1
								C1483.7,470.2,1488.6,469.1,1489.6,466.2z"/>
							<path class="st3" d="M1748.6,489.7c-1.9,3,1,8.1,6.4,11.4c5.4,3.3,11.3,3.7,13.2,0.6c1.9-3-1-8.1-6.4-11.4
								C1756.4,487,1750.5,486.7,1748.6,489.7z"/>
							<path class="st2" d="M1477.4,463.4c19.2-1.1,41.3,16.5,65.1,0.2"/>
							<path class="st2" d="M1679.4,446.8c22.7,30.2,38.9,19.1,75.3,45.3"/>
							<path class="st3" d="M1642.5,373.2c0,0,8.7-3,16.7,8.9s0.3,24-2.5,28.1c1.7-11,3.5-16.5,0.2-23.8
								C1651.6,374.4,1642.5,373.2,1642.5,373.2z"/>
							<path class="st3" d="M1566,384.4c0,0-15.6,18.6-30.3,9.4C1550.1,396,1554.2,389.5,1566,384.4z"/>
						</g>
					</g>
					<g>
						<path class="st7" d="M1262,296.1c10.3-7.6,17-19.7,17-33.5c0-22.9-18.6-41.4-41.4-41.4s-41.4,18.6-41.4,41.4
							s18.6,41.4,41.4,41.4c3.5,0,6.7-0.5,9.8-1.3l27,17.2L1262,296.1z"/>
					</g>
					<g>
						<path class="st6" d="M1234.7,254.1c0,0,1.9-26.5,18.1-14.8c16.4,11.9-9.2,50.2-9.2,50.2s-41.1-20.8-32.4-38.9
							C1217.9,236.8,1234.7,254.1,1234.7,254.1z"/>
					</g>
				</g>
				<g>
					<g>
						<path class="st1" d="M1829.1,598.8c8.3,0,16.2-7.3,15.9-15.9c-0.3-8.6-7-15.9-15.9-15.9c-8.3,0-16.2,7.3-15.9,15.9
							C1813.5,591.5,1820.2,598.8,1829.1,598.8L1829.1,598.8z"/>
					</g>
				</g>
			</g>
			<g>
				<path class="st6" d="M249.7,339.2c0,0-26.8-23.2-53.6,1.6c0,0-9.4-34.3,26.6-34.4C256.1,306.4,249.7,339.2,249.7,339.2z"/>
				<path class="st6" d="M234,418.1c0,0,21-39,22-41.7c1-3.1,6.5-16.1-0.3-39.1c-6.8-23-15.8-26.7-15.8-26.7
					c14.8,9.9,5.7,28.8-1.1,40.6c-1.3,2.2-2.6,4.4-3.9,6.6c-6,9.7-60.3,106.9-60.3,106.9l16,24.7L234,418.1z"/>
				<path class="st6" d="M211.3,418.1c0,0-21-39-22-41.7c-1-3.1-6.5-16.1,0.3-39.1c6.8-23,15.8-26.7,15.8-26.7
					c-14.8,9.9-5.7,28.8,1.1,40.6c1.3,2.2,2.6,4.4,3.9,6.6c6,9.7,61.7,105.1,61.7,105.1l-17.4,26.6L211.3,418.1z"/>
			</g>
		</g>
	</g>
</g>
</svg>
