<?xml version="1.0" encoding="utf-8"?>
<!-- Generator: Adobe Illustrator 24.1.3, SVG Export Plug-In . SVG Version: 6.00 Build 0)  -->
<svg version="1.1" id="Calque_1" xmlns="http://www.w3.org/2000/svg" xmlns:xlink="http://www.w3.org/1999/xlink" x="0px" y="0px"
	 viewBox="0 0 1920 800" style="enable-background:new 0 0 1920 800;" xml:space="preserve">
<style type="text/css">
	.st0{fill:#F9FCFF;}
	.st1{fill:#FFFFFF;}
	.st2{fill:#79ACD8;}
	.st3{fill:none;stroke:#08070C;stroke-width:2;stroke-linecap:round;stroke-linejoin:round;stroke-miterlimit:10;}
	.st4{fill:#08070C;}
	.st5{fill:#AFD2F0;}
</style>
<g>
	<polygon class="st0" points="1208.3,440.2 1119,583.4 1326.6,678.2 1507,500.5 	"/>
	<g>
		<g>
			<path class="st1" d="M1704.2,213.1c-6.8,0-13.6,6.3-13.6,13.6c0,7.3,5.9,13.6,13.6,13.6c6.8,0,13.6-6.3,13.6-13.6
				C1716.9,219,1711.4,213.1,1704.2,213.1L1704.2,213.1z"/>
		</g>
	</g>
	<g>
		<g>
			<path class="st2" d="M1726.8,215.8c-5.9,3.2-11.8,5-18.1,6.8c-10,2.3-19,2.7-28.1-2.3c-11.3-6.8-17.7-19.5-29.9-24.9
				c-13.6-6.3-30.4-1.8-43.5-9.1c-0.5-0.9-1.8,0.9-0.5,1.8c13.6,7.7,29.5,2.7,43.5,9.1c12.2,5.4,18.6,18.6,29.9,24.9
				c9.5,5.4,19,5.4,29,2.7c10-2.7,20.4-6.8,29-13.6c7.3-5.9,12.7-15,9.1-24c-5.9-15-24-16.3-37.2-21.8
				c-15.4-5.9-27.6-16.8-41.2-25.4c-13.6-8.6-28.1-14.5-44.9-14.5c-15.4,0-33.1,4.5-34.4,22.7c-1.4,14.5,4.5,32.2,17.7,39.9
				c0.9,0.9,2.3-0.9,0.9-1.8c-12.2-7.3-17.2-22.7-17.2-36.3c0.5-8.2,3.6-15,10.9-18.6c6.8-3.2,14.5-4.1,21.8-4.1
				c15.9,0,30.4,5.9,43.5,14.5c11.3,7.7,22.7,16.3,34.9,22.7c6.8,3.2,13.1,5.4,19.9,7.3c7.3,2.3,14.5,5,19,10.9
				c8.2,9.5,3.6,19.9-4.5,27.2C1733.6,211.8,1730,214,1726.8,215.8"/>
		</g>
	</g>
	<path class="st2" d="M1271.8,302.4c0,0,0.5-10,4.5-6.3c4.1,3.6,5,22.7,0.9,23.6c-3.6,0.9-4.5-7.3-4.5-7.3"/>
	<g>
		<g>
			<g>
				<path class="st3" d="M1380.5,572.1c-29-3.2-25.4-44-25.4-44"/>
				<path class="st4" d="M1381.9,568.5c0,0-25.4,5.4-27.6,23.6c0,0-2.3,10.9,4.5,7.7C1358.8,599.8,1396.9,572.1,1381.9,568.5z"/>
				<path class="st3" d="M1293.1,609.3c-23.6-26.3,5.4-81.6,5.4-81.6"/>
				<g>
					<path class="st4" d="M1295.8,607c0,0-22.2-13.6-36.3-2.3c0,0-9.1,6.3-1.8,8.6C1257.7,613.4,1303.9,619.7,1295.8,607z"/>
				</g>
				<path class="st5" d="M1413.6,157.8c0,0,15-16.3,29.9,0c0,0-19.5,112.9,9.5,147.3c0.9,0.9,1.8,1.8,2.3,2.7
					c32.6,30.8,0,19.9,0,19.9s-29.5-16.3-52.6,1.8l-4.1-20.9C1398.7,308.3,1434.5,261.6,1413.6,157.8z"/>
				<path class="st2" d="M1398.2,284.7c0,0,29,237.5-33.1,252c-62.1,14.5-137.8,6.8-135.5-65.7
					C1232.3,399,1376.9,174.6,1398.2,284.7z"/>
				<g>
					<path class="st4" d="M1250.2,440.3c0,0,0,1.8,0,4.8c0,3.1-0.4,7-0.9,12.3c0,2.6-0.4,5.3-0.4,7.9c-0.4,3.1-0.4,5.7-0.9,8.8
						c0,3.1,0,6.6,0.4,9.7c0.4,3.1,1.8,6.6,3.5,9.2c0.9,1.3,1.8,3.1,2.6,4.4c0.9,1.3,1.8,2.6,2.6,3.9s1.8,2.6,3.1,3.5
						c0.9,1.3,2.2,2.2,3.1,3.5c2.2,2.2,4.4,3.9,6.6,5.7c1.3,0.9,2.2,1.8,3.1,2.2c1.3,0.9,2.2,1.3,3.1,2.2c0.9,0.4,2.2,1.3,3.1,1.8
						c0.9,0.4,1.8,1.3,2.6,1.3c1.8,0.9,3.5,1.8,4.8,2.2c2.6,1.3,4.4,2.2,4.4,2.2v0.4c0,0-1.8,0-4.8-0.4c-0.9,0-1.8,0-2.6-0.4
						c-0.9,0-1.8-0.4-3.1-0.4c-0.9,0-2.2-0.4-3.5-0.9c-1.3-0.4-2.2-0.9-3.5-1.3s-2.6-1.3-3.9-1.8c-1.3-0.4-2.6-1.3-3.9-2.2
						c-2.6-1.8-5.3-3.9-7.5-6.6c-1.3-1.3-2.2-2.6-3.1-3.9c-0.9-1.3-2.2-3.1-2.6-4.4c-1.8-3.1-3.1-6.6-3.9-10.1
						c-1.8-7-2.6-13.6-4.4-19.7c-0.4-3.1-1.3-6.6-1.3-9.2c0-3.1,0.4-5.7,0.4-8.3c0.4-2.6,0.9-4.8,1.3-7s1.3-3.9,1.8-5.3
						c1.3-2.6,2.2-4.4,2.2-4.4L1250.2,440.3z"/>
				</g>
				<path class="st3" d="M1514.7,582.1c21.3-27.2-5.9-54.4-5.9-54.4"/>
				<path class="st4" d="M1512,579.8c0,0,25.8,4.1,29,21.8c0,0,3.2,10.9-4.1,7.7C1536.9,609.3,1497,583.9,1512,579.8z"/>
				<path class="st3" d="M1577.7,609.7c28.1-40.8-11.8-81.6-11.8-81.6"/>
				<g>
					<path class="st4" d="M1574.1,607c0,0,22.2-13.6,36.3-2.3c0,0,9.5,6.3,1.8,8.6C1612.2,613.4,1565.5,619.7,1574.1,607z"/>
				</g>
				<path class="st2" d="M1459.9,284.7c0,0-29,237.5,33.1,252c62.1,14.5,137.8,6.8,135.5-65.7C1626.2,399,1481.2,174.6,1459.9,284.7
					z"/>
				<g>
					<path class="st4" d="M1610,440.3c0,0,0.9,1.3,2.2,4.4c0.4,1.3,1.3,3.1,1.8,5.3c0.4,2.2,0.9,4.4,1.3,7s0.9,5.3,0.4,8.3
						c0,3.1-0.4,6.1-1.3,9.2c-1.3,6.6-2.6,13.2-4.4,19.7c-0.9,3.5-2.2,7-3.9,10.1c-0.9,1.8-1.8,3.1-2.6,4.4
						c-0.9,1.3-2.2,2.6-3.1,3.9c-2.2,2.6-4.8,4.8-7.5,6.6c-1.3,0.9-2.6,1.8-3.9,2.2c-1.3,0.4-2.6,1.3-3.9,1.8
						c-1.3,0.4-2.6,0.9-3.5,1.3c-1.3,0.4-2.2,0.9-3.5,0.9c-0.9,0.4-2.2,0.4-3.1,0.4c-0.9,0-1.8,0.4-2.6,0.4
						c-3.1,0.4-4.8,0.4-4.8,0.4v-0.4c0,0,1.8-0.9,4.4-2.2c1.3-0.4,3.1-1.3,4.8-2.2c0.9-0.4,1.8-0.9,2.6-1.3s2.2-1.3,3.1-1.8
						c0.9-0.9,2.2-1.3,3.1-2.2c0.9-0.9,2.2-1.8,3.1-2.2c2.2-1.8,4.4-3.5,6.6-5.7c0.9-0.9,2.2-2.2,3.1-3.5c0.9-1.3,2.2-2.2,3.1-3.5
						c0.9-1.3,1.8-2.6,2.6-3.9s1.8-2.6,2.6-4.4c1.8-3.1,2.6-6.1,3.5-9.2s0.9-6.6,0.4-9.7c-0.4-3.1-0.4-6.1-0.9-8.8
						c0-2.6-0.4-5.7-0.4-7.9c-0.4-4.8-0.4-9.2-0.9-12.3c0-3.1,0-4.8,0-4.8L1610,440.3z"/>
				</g>
				<g>
					<path class="st1" d="M1387.1,490.5c0,0,0.5,0.9,0.5,2.7s0,4.1-0.9,6.8c-0.5,1.4-0.9,2.7-1.8,4.1c-0.9,1.4-1.8,2.7-3.2,4.1
						c-1.4,1.4-2.3,2.7-3.2,4.1c-0.9,1.4-1.8,3.2-2.7,5c-0.5,0.9-0.9,1.8-1.4,2.7c-0.5,0.9-0.9,1.8-1.8,2.3
						c-1.4,1.4-2.7,2.7-4.1,4.1c-1.4,1.4-3.2,2.3-4.5,2.7c-0.9,0.5-1.4,0.5-2.3,0.9s-1.4,0.5-2.3,0.5c-2.7,0.5-5.4,0-6.8,0
						c-1.8-0.5-2.7-0.9-2.7-0.9V529c0,0,0.9-0.5,2.3-0.9c0.9-0.5,1.4-0.9,2.7-1.4c0.9-0.5,1.8-0.9,3.2-1.4c0.5-0.5,0.9-0.5,1.8-0.9
						c0.5-0.5,1.4-0.5,1.8-0.9c1.4-0.5,2.3-1.4,3.6-2.3c1.4-0.9,2.7-1.4,4.1-2.7c1.4-0.9,2.7-1.8,4.1-2.7c1.4-0.9,2.7-2.3,3.6-3.6
						s1.8-3.2,1.8-4.5c0.5-1.8,0.5-3.2,0.9-4.5c0.5-1.4,1.4-2.7,1.8-3.6c1.4-2.3,2.3-4.1,3.2-5.4s1.8-1.8,1.8-1.8L1387.1,490.5z"/>
				</g>
				<g>
					<path class="st1" d="M1471.8,490.1c0,0,0.9,0.9,1.8,1.8c0.9,1.4,2.3,3.2,3.2,5.4c0.5,1.4,1.4,2.3,1.8,3.6
						c0.5,1.4,0.9,3.2,0.9,4.5c0.5,1.8,0.9,3.2,1.8,4.5c0.9,1.4,2.3,2.7,3.6,3.6c1.4,0.9,2.7,1.8,4.1,2.7c1.4,0.9,2.7,1.8,4.1,2.7
						c1.4,0.9,2.7,1.4,3.6,2.3c0.5,0.5,1.4,0.5,1.8,0.9s0.9,0.5,1.8,0.9c0.9,0.5,2.3,0.9,3.2,1.4c0.9,0.5,1.8,0.9,2.7,1.4
						c1.4,0.5,2.3,0.9,2.3,0.9v0.5c0,0-0.9,0.5-2.7,0.9c-1.8,0.5-4.1,0.5-6.8,0c-0.9,0-1.4-0.5-2.3-0.5s-1.4-0.5-2.3-0.9
						c-1.4-0.5-3.2-1.4-4.5-2.7c-1.4-0.9-2.7-2.3-4.1-4.1c-0.5-0.9-1.4-1.4-1.8-2.3c-0.5-0.9-0.9-1.8-1.4-2.7
						c-0.9-1.8-1.8-3.2-2.7-5c-0.9-1.4-2.3-2.7-3.2-4.1c-1.4-1.4-2.3-2.7-3.2-4.1c-0.9-1.4-1.4-2.7-1.8-4.1c-0.9-2.7-0.9-5-0.9-6.8
						s0.5-2.7,0.5-2.7L1471.8,490.1z"/>
				</g>
				<path class="st3" d="M1590.4,391.7c35.8-13.6,37.2-32.6,35.4-64.8"/>
				<path class="st3" d="M1267.2,391.2c-34-17.2-33.5-36.3-29-68"/>
			</g>
			<ellipse class="st4" cx="1240" cy="311.5" rx="7.7" ry="13.6"/>
			
				<ellipse transform="matrix(0.1732 -0.9849 0.9849 0.1732 1033.5138 1862.848)" class="st4" cx="1626.3" cy="315.9" rx="13.6" ry="7.7"/>
		</g>
		<path class="st2" d="M1213.9,312.4c0,0-8.2-19.5-10.4-5.9c-2.3,14.5,5.9,33.5,8.6,27.2c2.7-5.9,1.8-13.1,1.8-13.1V312.4
			c16.8-3.6,39-6.3,57.6-8.2c0.9,10,0.9,8.6,0.9,8.6s-45.3,2.7-58,8.2"/>
		<path class="st2" d="M1651.6,325.5c0,0-0.5,20.9,6.8,9.5c7.7-12.2,8.2-33.1,3.2-28.6c-4.5,4.1-7.3,11.3-7.3,11.3L1651.6,325.5
			c-16.8-3.6-38.1-10-56.2-15.9c3.2-9.5,2.7-8.2,2.7-8.2s42.6,16.3,56.2,16.3"/>
		<path class="st2" d="M1594.9,311c0,0-4.5,9.1-6.8,4.1c-2.3-5,5-22.7,8.6-21.8c4.1,0.9,1.4,8.6,1.4,8.6"/>
	</g>
</g>
</svg>
